<?xml version="1.0" encoding="UTF-8" standalone="no"?>
<!-- Created with Inkscape (http://www.inkscape.org/) -->

<svg
   xmlns:dc="http://purl.org/dc/elements/1.1/"
   xmlns:cc="http://creativecommons.org/ns#"
   xmlns:rdf="http://www.w3.org/1999/02/22-rdf-syntax-ns#"
   xmlns:svg="http://www.w3.org/2000/svg"
   xmlns="http://www.w3.org/2000/svg"
   xmlns:sodipodi="http://sodipodi.sourceforge.net/DTD/sodipodi-0.dtd"
   xmlns:inkscape="http://www.inkscape.org/namespaces/inkscape"
   width="1062.8337"
   height="1062.1091"
   id="svg2"
   version="1.1"
   inkscape:version="0.48.4 r9939"
   sodipodi:docname="doge.svg">
  <defs
     id="defs4">
    <filter
       id="filter3032"
       inkscape:label="Colorize"
       x="0"
       y="0"
       width="1"
       height="1"
       inkscape:menu="Color"
       inkscape:menu-tooltip="Blend image or object with a flood color and set lightness and contrast"
       color-interpolation-filters="sRGB">
      <feColorMatrix
         id="feColorMatrix3034"
         type="saturate"
         values="0"
         result="fbSourceGraphic" />
      <feColorMatrix
         result="fbSourceGraphicAlpha"
         in="fbSourceGraphic"
         values="0 0 0 -1 0 0 0 0 -1 0 0 0 0 -1 0 0 0 0 1 0"
         id="feColorMatrix3020" />
      <feColorMatrix
         id="feColorMatrix3022"
         values="1"
         in="fbSourceGraphic"
         type="saturate"
         result="result2" />
      <feFlood
         id="feFlood3024"
         flood-color="rgb(254,102,0)"
         flood-opacity="1"
         result="result1" />
      <feBlend
         id="feBlend3026"
         in2="result2"
         mode="multiply"
         in="result1"
         result="result3" />
      <feComposite
         id="feComposite3028"
         in2="fbSourceGraphic"
         operator="in"
         k2="1"
         result="result4" />
    </filter>
  </defs>
  <sodipodi:namedview
     id="base"
     pagecolor="#ffffff"
     bordercolor="#666666"
     borderopacity="1.0"
     inkscape:pageopacity="0.0"
     inkscape:pageshadow="2"
     inkscape:zoom="0.68"
     inkscape:cx="237.88485"
     inkscape:cy="481.19811"
     inkscape:document-units="px"
     inkscape:current-layer="layer1"
     showgrid="false"
     inkscape:window-width="1920"
     inkscape:window-height="1037"
     inkscape:window-x="0"
     inkscape:window-y="43"
     inkscape:window-maximized="0"
     fit-margin-top="180"
     fit-margin-left="180"
     fit-margin-right="180"
     fit-margin-bottom="180" />
  <metadata
     id="metadata7">
    <rdf:RDF>
      <cc:Work
         rdf:about="">
        <dc:format>image/svg+xml</dc:format>
        <dc:type
           rdf:resource="http://purl.org/dc/dcmitype/StillImage" />
        <dc:title></dc:title>
      </cc:Work>
    </rdf:RDF>
  </metadata>
  <g
     inkscape:label="Layer 1"
     inkscape:groupmode="layer"
     id="layer1"
     transform="translate(154.79661,48.548897)">
    <g
       id="g3015"
       style="filter:url(#filter3032)">
      <path
         style="fill:#f2eab4"
         d="M 370.6503,833.51558 C 224.74968,833.27858 86.543018,731.42791 42.854522,592.20658 -2.616622,459.26348 41.986046,301.8878 151.09135,213.12223 263.98057,115.53697 440.2773,104.03266 564.94884,186.00054 c 119.64595,73.94657 184.56484,224.10083 156.66155,361.91599 -25.42153,145.64315 -152.38465,265.58178 -299.2157,282.69819 -17.14571,2.26552 -34.45482,3.16501 -51.74439,2.90086 z m -7.90879,-442.40863 c 34.88681,-36.77656 -12.35315,-1.83189 -1.78831,0.15496 l 1.78831,-0.15496 0,0 z m -112.99807,-23.7894 c 10.87027,-12.76748 -14.48287,-5.09789 0,0 z"
         id="path3046"
         inkscape:connector-curvature="0" />
      <path
         style="fill:#e6cf88"
         d="M 370.5303,833.39275 C 226.03598,833.22626 89.292878,733.1652 44.259686,596.09222 -2.53483,463.69149 39.891206,305.6364 148.2264,215.70134 257.76266,118.92254 429.14481,103.98648 554.08926,179.47438 675.27479,248.45339 745.39012,394.20882 724.14279,531.90269 705.88037,673.78788 591.85356,796.56452 451.74478,825.40183 c -26.64096,5.80338 -53.95289,8.49151 -81.21448,7.99092 z M 184.3485,603.82025 c -1.60205,2.02298 -10.54099,-99.89673 -7.0599,-40.50687 8.71026,-14.07595 13.58544,-8.64205 16.94327,-29.60944 -12.95982,-45.85578 4.67297,10.62832 -16.33528,-42.59369 -10.7616,-12.0908 -0.34478,-31.08784 0.50063,-45.04848 -0.68673,-15.73016 12.20459,-39.21514 23.55585,-29.91337 -18.26142,-7.38064 2.81668,-65.05961 1.53327,-52.55262 -30.33805,-15.20544 -60.5958,106.79 -46.84722,54.39781 9.64257,5.68213 -14.51997,2.99394 -4.03141,-2.35362 -14.94761,17.78822 -11.17194,37.84103 15.9073,34.91982 -28.85577,-5.78489 -32.14869,-2.1546 -27.3116,13.73702 17.36768,-4.21085 36.78118,-8.82981 8.83862,-1.11753 -17.74626,13.64588 -25.57606,22.1332 9.52827,5.84674 -19.3755,-0.61092 -31.63919,30.27123 -6.58411,11.85214 42.00192,-18.41622 -33.69266,14.03024 -10.07828,16.50709 -2.24354,-7.99642 0.4232,35.23041 -0.49059,27.57837 4.19425,23.28456 36.59811,73.20285 26.89823,62.19564 5.58907,1.62172 11.76041,13.48447 15.03295,16.66099 z m -27.5382,-58.05094 c 5.80918,-14.54253 32.51283,-62.26928 13.27297,-21.26244 -4.72717,6.58157 -9.14425,15.55696 -13.27297,21.26244 z m -13.32,-28.01465 c 11.80692,-11.9939 16.71513,-12.20448 0,0 z m 11.64,-1.70298 c 11.28797,-12.08381 33.18017,-30.65161 8.79705,-7.36143 -2.98377,2.39365 -5.4811,5.39757 -8.79705,7.36143 z m 0.36,-8.98201 c 8.90088,-12.56652 30.5479,-25.34226 7.11784,-5.82757 -2.29147,2.04129 -4.77936,3.84285 -7.11784,5.82757 z m -4.08,-16.02307 c 16.00525,-13.94883 24.03186,-15.77677 0,0 z m 26.26849,-52.69981 c -21.43272,-19.28936 -9.51547,-10.30958 0,0 z m -18.22608,-17.31364 c -0.22478,-0.61101 0.56468,0.55025 0,0 z m 37.9229,-3.43688 c -2.81133,-6.0474 1.48553,1.134 0,0 z m 20.0607,164.15198 c -0.72643,0.16378 0.38731,0.54889 0,0 z M 336.15354,529.9494 c -1.17482,-2.74199 0.34039,2.06483 0,0 z m 184.48383,-35.11915 c -0.80964,0.49998 -0.0802,1.54286 0,0 z m -55.54698,-19.18792 c -0.63322,-0.20201 0.2252,0.72216 0,0 z M 362.88408,391.20152 c 40.27591,-16.03098 -16.84755,-13.93742 0,0 z M 250.25509,367.25335 c 10.94772,-13.0937 -17.21285,-3.98417 0,0 z"
         id="path3044"
         inkscape:connector-curvature="0" />
      <path
         style="fill:#ddca82"
         d="M 370.7703,833.39318 C 224.87288,833.27468 86.75837,731.39746 43.008986,592.28219 -2.917582,458.32179 42.829262,299.58871 153.64081,211.17712 263.73244,118.01813 432.52419,105.11413 555.55205,180.36918 c 117.54344,68.04364 187.39608,208.44185 169.6414,343.3167 -15.31536,147.57659 -134.45076,276.5734 -280.5354,303.15824 -24.30728,4.79535 -49.11816,6.96641 -73.88775,6.54906 z m -86.04,-185.43393 c 40.27193,-7.47394 82.81987,-7.78152 119.11874,-29.22001 27.45719,-13.63829 6.55786,-4.15193 -2.30971,-5.56001 19.1995,-16.35187 34.74333,-27.58795 44.76699,-46.51012 1.34669,-14.47197 -12.92598,-32.95991 13.32398,-31.40701 20.11745,3.43215 28.01368,-12.56164 18.40985,-29.1518 4.14842,-22.02383 -32.34785,0.45713 -19.18189,-4.01813 -16.93421,6.9952 -27.7292,26.4111 -47.76796,28.14425 -20.8392,11.36546 -32.19032,21.69858 -28.29768,21.2053 15.63349,7.4586 10.49768,26.60336 26.17933,27.14633 -27.4445,3.17346 -51.08341,-10.00389 -56.71059,23.75788 -10.8752,9.68843 -48.06646,-4.25848 -37.07451,18.20327 -9.26619,-30.0776 -34.68245,-29.40081 -55.73061,-13.50926 -9.8365,-1.03016 -30.74966,-24.7114 -30.85054,-22.57034 -20.28172,-8.43473 -45.21042,-76.81189 -34.26747,-50.25762 -6.81945,-25.45554 -22.20515,-50.46229 -7.40793,-78.91339 -7.60207,-22.35597 38.50479,-25.00964 15.75305,-33.53385 3.51928,-7.51539 -17.06474,-17.50357 -7.36266,-39.31442 25.14939,-14.06082 -6.73738,-34.07065 -13.38462,-7.32001 -14.06405,10.2345 -38.44928,59.32286 -29.64608,45.79968 0.79174,-15.74559 -25.59206,42.16043 8.03498,27.97285 16.74755,4.59963 -32.61679,-11.89541 -20.96856,11.06747 -2.55982,12.19373 35.24573,-6.6591 6.98357,4.13438 -38.93515,17.81445 69.1315,2.68847 11.72432,5.4537 -20.76723,0.34059 -27.5618,28.87413 -4.56317,11.17801 39.28968,-20.67124 -41.14147,23.97687 -7.25083,14.42748 -16.64874,22.2463 5.42497,58.12234 15.60633,81.92643 -0.7559,9.66528 15.48421,15.55815 21.76371,22.16043 25.32188,4.13652 36.9782,48.07349 70.42118,45.87168 10.05981,2.5329 20.31349,3.81063 30.68878,2.83683 z m -53.2397,-30.369 c 3.36578,-18.26622 8.97771,-26.9533 0.96831,-2.26378 l -0.90225,3.09605 -0.0661,-0.83227 0,0 z m -54.33227,-21.58236 c -1.66835,-1.83534 1.54291,0.95371 0,0 z m -1.10792,-1.30811 c -1.97417,-2.33088 0.74948,0.2912 0,0 z m -1.53066,-1.94257 c -1.68298,-2.93676 2.16475,2.84619 0,0 z m 25.49816,-7.49793 c 1.21885,-16.11271 5.40486,-38.79823 1.80926,-8.74606 l -1.10202,6.274 -0.70724,2.47206 z m -7.01167,-18.91078 c 2.46556,-22.05954 9.19989,-18.42072 0,0 z m -35.1145,-22.30056 c 2.27749,-7.56489 1.43845,-0.22836 0,0 z m 4.03587,-7.81769 c 5.6931,-13.28081 23.72224,-44.79466 9.32096,-14.35187 -2.835,4.56303 -6.4801,10.67139 -9.32096,14.35187 z m -17.222,-19.34034 c 9.73863,-9.89001 8.47251,-5.88287 0,0 z m 11.14469,-1.52261 c 12.3708,-12.54065 16.43337,-13.95533 0,0 z m 0.96,-9.49369 c 10.11432,-12.38063 26.99338,-23.09665 4.5088,-3.91495 l -4.0588,3.60538 -0.45,0.30957 z m 14.28,-4.83496 c 8.82833,-8.86233 2.93721,-2.07442 0,0 z m -17.16,-11.82415 c 12.99933,-10.7953 20.28508,-14.35548 0,0 z m 23.14001,-51.53425 c -12.2997,-11.00449 -14.51735,-14.41668 0,0 z m 254.35018,173.89716 c 0.73916,-0.60726 -1.2798,0.27312 0,0 z M 498.573,547.90025 c 2.69183,-5.19064 -1.71989,1.54616 0,0 z m -172.1427,-0.09 c -0.14903,-0.47308 -0.43058,0.45686 0,0 z m 173.82,-3.51869 c -0.79838,-0.0228 0.14965,1.01502 0,0 z m -163.8,-13.73953 c -0.43142,-4.59122 -1.17296,1.02377 0,0 z m -39.72,-4.58178 c -0.10799,-0.78359 -0.59486,0.48786 0,0 z m -16.74,-13.61628 c -0.30787,-0.67632 -1.36772,0.87402 0,0 z m 240.41812,-16.44372 c 3.59819,-10.48152 -3.89367,8.27062 0,0 z m -191.83312,-9.915 c 0.90451,-3.50651 -1.51187,0.7069 0,0 z m 136.55881,-9.71371 c 0.49694,-3.07569 -1.83084,1.28335 0,0 z m -137.14249,-7.07129 c -0.26508,-3.85275 -0.8034,4.77309 0,0 z M 153.21274,414.00121 c -0.32796,-1.32219 -0.87877,1.39886 0,0 z m 210.41756,-3.12903 c -15.10681,-22.44923 15.42403,-25.82773 9.08908,-31.9457 -16.75019,0.0104 -43.88754,35.95427 -9.08908,31.9457 z M 231.05763,368.41301 c 29.25153,-9.88863 -18.50021,-18.12899 0,0 z m 19.2095,-1.16373 c 10.24639,-14.74003 -16.46348,-2.95974 0,0 z"
         id="path3042"
         inkscape:connector-curvature="0" />
      <path
         style="fill:#e4c874"
         d="M 366.6303,833.2816 C 222.64404,831.3446 87.265058,730.52692 43.454414,593.47472 -3.08263,459.03198 42.752246,299.15707 154.41606,210.60164 c 109.73686,-92.3384 277.31168,-105.21081 399.94576,-30.88675 122.3636,69.93277 192.65775,218.27365 168.96302,357.25394 -20.53395,144.70592 -141.1389,267.41981 -285.22529,291.05857 -23.56359,4.19076 -47.54944,5.86305 -71.46925,5.2542 z m 17.70315,-18.83487 c 33.09291,-0.39099 55.02136,-24.63301 87.52219,-29.23872 -3.78017,20.10051 39.87299,-12.30971 39.82961,-13.93542 14.83926,-10.99518 23.92584,-28.52389 40.56752,-38.40907 -9.54673,-0.21463 -21.55597,7.8634 -4.32175,-9.09487 10.79603,-23.04292 3.61188,-71.30064 12.91309,-56.8584 7.42549,-34.31933 -94.7598,22.11929 -59.67781,5.92251 -16.2174,29.6555 -46.3069,43.55501 -73.40704,54.90519 -22.16666,9.35618 -53.66036,12.70313 -67.8167,38.19272 -25.31675,14.20773 -18.54587,15.90803 -31.12345,14.1043 -11.69617,25.67389 -36.12981,-12.08305 -36.30701,13.7372 -42.98151,7.06313 45.07147,17.59619 32.38104,16.33787 19.34726,-1.76161 42.25378,3.32166 59.44031,4.33669 z M 464.88036,653.5858 c 18.34001,-0.5583 42.42928,-40.83166 15.87233,-30.36081 7.0778,-20.66202 -8.04116,-19.01576 14.93761,-36.2327 -17.5263,6.46326 -40.72758,21.64064 -17.26938,-5.89218 20.21017,-30.0976 34.27344,-63.58534 46.4439,-97.44546 3.21789,-10.96452 -5.27394,-13.85305 -0.52712,-24.12082 -6.66141,-28.63529 -2.69013,-73.87503 -46.8774,-58.58901 -30.52199,-3.62837 -54.68983,-9.05849 -63.95784,20.2612 -21.06509,28.07207 -60.06914,12.47987 -81.22415,33.66423 -20.16404,33.57988 21.57066,17.35802 42.03199,27.61477 14.98739,10.16749 -52.20986,-18.60752 -46.23508,2.901 0.41784,14.58044 0.18071,34.81992 3.24836,32.86574 26.02961,15.08564 32.85326,39.93272 -2.91328,45.35592 -28.18682,-4.88115 -2.36326,17.58322 -29.28,11.74124 -4.10093,4.72264 21.13017,2.17602 0.44499,9.62294 12.21423,10.8487 22.33827,55.37701 6.21319,17.31839 -9.48758,-24.32712 -17.51328,-17.4592 -20.39965,-10.0605 -9.18274,16.25148 -42.3689,21.38742 -47.82814,-3.80897 -13.87917,0.50737 -22.21885,-17.36372 -34.18811,-35.45053 -10.2723,-13.53981 -24.03711,-58.74186 -16.57443,-43.41625 -11.65481,-23.07145 -5.61509,-65.24717 17.17215,-79.47875 18.96846,-6.15341 41.38208,2.48632 56.74975,11.60133 3.81504,-0.59833 11.25825,-4.99193 13.51029,-4.5049 -21.81309,2.82263 -4.53222,8.60717 -11.45788,24.3542 0.59774,12.85668 -16.98538,18.17055 -9.42151,18.18314 -5.34846,3.37112 10.25755,17.69336 -3.90652,9.66192 -0.7904,8.90042 10.25525,26.71014 5.82621,21.15036 -6.1517,9.17041 33.9288,22.29286 24.5097,20.75609 7.26889,1.53207 25.77934,-5.04393 11.08969,-7.40787 -22.32345,-8.45551 0.18346,-26.30945 0.64238,-20.28485 3.56083,-11.32668 26.07766,-32.9025 23.21796,-21.9115 -5.05858,-3.98456 -41.01823,-0.67903 -6.06,-4.31142 11.86711,-0.2343 -6.68734,-18.07856 -3.70953,-13.77293 -3.47296,-10.7786 -19.74274,-9.75101 -20.31972,-22.95826 -21.49879,-17.10833 24.38325,24.51458 17.05013,16.67529 -13.4311,-14.23577 -59.33096,-27.71843 -42.92525,-25.00368 -4.07545,-7.71045 1.83669,-27.36492 -4.689,-20.4809 3.2392,-4.89214 13.63737,-15.66019 13.97337,-16.78317 -14.42052,6.04113 -18.02598,27.09533 -36.15272,25.21227 -7.48149,-9.11187 -36.84055,-0.94979 -29.48728,2.51021 9.65552,-12.02069 -14.26418,-0.88363 -7.19299,-20.21733 -10.77961,-16.06269 28.45473,-45.02825 -4.91096,-39.45367 -14.71563,11.29869 -34.82445,55.47081 -37.45535,52.50724 -3.91531,1.49171 -23.84044,44.17608 8.80775,33.62022 -23.83783,-16.17709 -32.82703,27.86957 -5.44845,11.90287 -31.85998,3.94986 7.57604,-0.87676 -1.43163,9.86496 -19.58307,-1.782 -23.23851,29.57321 -2.38285,10.40008 39.6184,-18.86664 -36.04286,16.35358 -8.27325,15.42862 -18.42428,27.51394 39.52841,112.98516 18.37152,79.09933 3.0162,14.77931 13.55359,15.4446 21.58525,28.62746 -3.8106,-23.35419 63.53968,50.5592 42.03096,32.04295 32.66783,15.43137 68.77009,11.99406 102.88692,4.22588 40.63954,-0.71125 76.17308,-23.44985 110.83968,-40.73181 -10.99239,12.0188 4.10615,13.85197 -1.2966,12.47689 -8.52386,8.17088 -65.29862,41.68329 -24.33,27.59061 19.04359,-9.92415 11.76316,19.85618 32.17599,6.30164 6.04619,2.57842 11.20002,8.83058 18.494,7.13928 z M 231.4906,617.59025 c 3.36578,-18.26622 8.97771,-26.9533 0.96831,-2.26378 l -0.90225,3.09605 -0.0661,-0.83227 0,0 z m -31.42195,-32.79511 c 1.39758,-17.3669 5.19721,-36.00203 1.64987,-7.65251 l -1.05369,5.85759 -0.59618,1.79492 z m -7.06064,-18.52696 c 1.33263,-17.25502 9.05765,-18.8405 0,0 z m 260.86446,-29.49442 c 1.99044,-0.72074 2.03852,-0.023 0,0 z m -291.36396,-1.50351 c 6.17816,-14.2803 23.10124,-43.4882 7.97072,-12.24 -5.16528,-0.67186 -3.02288,12.35092 -7.97072,12.24 z M 265.3305,520.69391 c -6.31363,-6.76606 8.0878,-2.64271 0,0 z m -119.2602,-4.91616 c 12.08842,-12.11237 0.0169,1.31897 0,0 z m 10.81102,-1.22227 c 4.44603,-4.89635 20.09528,-17.77928 0,0 z m 113.95563,-1.12527 c -5.90212,-4.96703 -11.64763,1.56193 0,0 l 0,0 z m -12.58293,-0.19145 c -0.92284,-10.8905 14.97966,-0.67695 0,0 z m 20.61967,-0.76851 c 0.0704,-0.7228 0.13076,0.5699 0,0 z m 0.33661,-0.59022 c 3.44777,-1.51724 0.8926,0.2598 0,0 z m -120.60578,-7.84821 c 13.64129,-14.89369 20.8637,-17.19599 2.1855,-1.69499 l -2.65533,2.32528 0.46983,-0.63029 z m 97.34149,-0.44887 c -5.88017,-13.56552 10.98344,-1.29134 0,0 z m 11.56429,-2.40891 c -12.46517,-6.12539 13.18548,-5.68376 0,0 z m 5.04,-2.5305 c 2.22035,-9.27013 16.73041,-0.63773 0,0 z m -10.977,-8.9394 c -2.30418,-6.98296 8.52887,-2.73433 0,0 z m -104.043,-3.26638 c 9.38565,-7.59125 8.42145,-5.75473 0,0 z m 115.11635,-1.89751 c -5.89598,-10.86929 8.80257,0.86421 0,0 z m 7.72117,-3.62428 c -1.80861,-9.50832 14.52849,-3.66468 0,0 z m -22.63752,-0.36572 c 0.65603,-0.6624 -0.37722,0.64463 0,0 z m 1.14085,-38.81862 c 0.18053,-0.25674 0.30857,0.46684 0,0 z m 0.57165,-0.0739 c 0.47518,-0.25218 0.11213,0.27041 0,0 z m -1.7839,-1.15749 c -0.81276,-0.96703 0.94349,0.95687 0,0 z m 8.5039,-1.24251 c 0.47518,-0.25218 0.11213,0.27041 0,0 z m -54.15491,-11.7504 c 0.29231,-0.36559 0.43809,0.7028 0,0 z m -0.88758,-0.8421 c -1.57586,-1.61991 1.97352,1.52933 0,0 z m -1.45001,-1.02289 c -3.54061,-1.59679 2.55209,0.81013 0,0 z m -3.42,-1.20645 c -5.74691,-1.72506 4.79623,0.91935 0,0 z m 120.18688,123.44416 c -0.12644,-0.83892 -0.69921,0.81963 0,0 z m 10.05421,-17.13399 c 0.10177,-4.22395 -1.90549,-0.55879 0,0 z m 190.59258,-42.58243 c 9.28607,-28.12167 -5.92409,0.78449 0,0 z M 255.59223,475.03021 c 4.39075,-4.56178 -3.13698,1.16645 0,0 z M 364.0803,410.9998 c -16.23832,-12.39643 10.94033,-40.15338 8.52856,-32.14911 -17.41361,0.24463 -43.81528,36.60087 -8.52856,32.14911 z m -92.91439,-17.7161 c 1.58707,-2.21027 -3.04359,1.87174 0,0 z m -44.01355,-10.79517 c -0.47708,-14.34933 26.45031,-28.7106 -0.186,-21.43192 -8.28912,3.10227 -9.03329,21.18062 0.186,21.43192 z m 23.08958,-15.13361 c 10.30478,-14.36787 -16.54703,-3.71374 0,0 z"
         id="path3040"
         inkscape:connector-curvature="0" />
      <path
         style="fill:#d8c072"
         d="M 366.6303,833.2816 C 222.64404,831.3446 87.265058,730.52692 43.454414,593.47472 -3.08263,459.03198 42.752246,299.15707 154.41606,210.60164 c 109.73686,-92.3384 277.31168,-105.21081 399.94576,-30.88675 122.3636,69.93277 192.65775,218.27365 168.96302,357.25394 -20.53395,144.70592 -141.1389,267.41981 -285.22529,291.05857 -23.56359,4.19076 -47.54944,5.86305 -71.46925,5.2542 z m 17.70315,-18.83487 c 33.09291,-0.39099 55.02136,-24.63301 87.52219,-29.23872 -3.78017,20.10051 39.87299,-12.30971 39.82961,-13.93542 14.83926,-10.99518 23.92584,-28.52389 40.56752,-38.40907 -9.54673,-0.21463 -21.55597,7.8634 -4.32175,-9.09487 10.79603,-23.04292 3.61188,-71.30064 12.91309,-56.8584 7.42549,-34.31933 -94.7598,22.11929 -59.67781,5.92251 -16.2174,29.6555 -46.3069,43.55501 -73.40704,54.90519 -22.16666,9.35618 -53.66036,12.70313 -67.8167,38.19272 -25.31675,14.20773 -18.54587,15.90803 -31.12345,14.1043 -12.3891,25.90694 -35.39922,-12.39 -36.48449,13.83966 -52.81272,14.06882 69.92254,12.26299 37.31761,14.53842 18.83586,4.48471 38.62105,2.91975 54.68122,6.03368 z M 207.98194,768.34882 c 7.25887,-13.13729 21.7228,-22.89458 18.10989,-19.98286 28.82387,-8.18305 13.63889,-64.08169 13.64876,-48.15571 0.12671,-8.45037 5.44662,-25.68297 2.19595,-21.91399 -18.42987,-28.4654 -59.49202,-32.59852 -66.41679,-69.73526 -9.9611,-13.5831 -7.74786,-28.76281 4.97553,-9.42075 7.81332,15.60225 -2.78457,-15.47454 14.76279,6.13485 23.65975,26.82032 52.52718,48.42896 91.77119,42.541 39.45845,-7.45669 81.14841,-7.78933 116.69948,-28.9153 10.55647,-3.17353 49.53051,-32.75392 27.49156,-7.17936 15.56237,-0.15874 -36.05126,33.68121 -34.08234,31.90881 10.793,2.14155 34.70389,-17.26018 33.27773,6.78 21.14952,-0.939 63.72487,8.44521 61.99644,-29.47236 -23.77324,14.79255 -25.28956,-13.99864 -12.57631,-16.99774 13.99275,-14.73884 19.76354,-21.25074 -2.98361,-9.12156 -21.79564,9.76093 28.4806,-66.01929 23.57935,-50.79404 10.09045,-29.50981 30.36351,-56.80817 26.77378,-89.32527 -4.25448,32.08539 -15.43854,-77.71646 -11.0697,-43.10342 -12.94761,-23.98412 -50.91076,-4.42343 -73.48534,-13.36799 -26.60098,-3.89803 -23.80336,35.80189 -58.56653,39.87347 -20.06862,11.09607 -52.69644,-2.51705 -56.51025,29.55229 8.12182,-11.95072 1.61146,-26.29138 -1.87024,-38.22338 -7.94435,-6.57709 -12.33532,-20.90112 -16.30309,-3.01674 -15.09524,19.92333 -3.8172,-61.60592 -14.45879,-29.00502 -13.69991,-16.41682 -15.30462,-10.70563 -25.38217,-3.32218 -9.76378,5.12808 -17.14496,13.69364 -23.58893,22.06479 -6.35758,4.4076 -25.38462,-5.2463 -21.3,0.21108 -10.83796,4.99451 -22.85426,9.42566 -4.9502,-2.83197 18.92424,-18.84476 12.49563,-15.15519 -3.08343,-32.56667 -6.58225,-27.13883 28.05472,-32.84791 40.12977,-49.99729 25.49604,-21.0993 -0.67273,53.00923 21.72516,16.98886 17.66437,-9.6759 20.86483,-64.7299 -5.88289,-51.89115 -15.4262,14.3378 -27.10836,28.5427 -41.17881,38.84151 -20.80464,20.26069 18.62643,-31.82766 13.1604,-40.25971 -13.11583,6.79912 -58.6043,39.1232 -48.92955,25.26482 -28.48214,26.85082 -27.95946,68.19178 -46.23454,100.58424 -13.36398,19.96952 -5.35162,29.73464 7.25572,28.19963 -24.22974,-12.54677 -21.31329,29.72499 -1.36688,12.78037 -24.03796,-0.24433 -19.94202,24.78741 2.02925,8.32376 -19.4567,-2.16178 -28.40481,30.4655 -4.94849,11.58623 39.61841,-18.86664 -36.04285,16.35358 -8.27324,15.42861 -14.48401,27.12656 14.5564,60.72686 17.57353,88.94178 -11.63673,27.07887 -5.88228,47.27781 -10.36247,76.14028 -5.74678,30.73272 -27.63135,59.08389 11.99712,76.06568 13.91608,10.90203 29.17142,23.81192 44.65119,30.38766 z m 23.83597,-151.73664 c 4.31666,-19.97418 6.42371,-20.34101 0,0 z m 23.45239,-9.8346 c -2.86304,-0.47627 14.6271,-0.44787 0,0 z m -3.99,-1.37088 c -2.37659,-1.4044 3.06326,1.27317 0,0 z m 11.26126,0.3123 c 5.01629,-2.77194 1.54169,0.79311 0,0 z m -13.00126,-1.41875 c -1.92556,-1.37869 2.14733,1.14889 0,0 z m 17.0487,-0.0326 c 6.29625,-2.57099 -1.7076,1.33177 0,0 z m 2.9013,-1.06608 c 4.54625,-2.09104 1.14211,-0.004 0,0 z m -21.9233,-0.48114 c -1.04832,-0.77314 0.63286,-0.0878 0,0 z m 25.1733,-0.83821 c 3.40416,-2.14602 1.16478,0.40106 0,0 z m -26.37167,-0.34247 c -0.29561,-0.84544 0.82546,0.85165 0,0 z m 30.12355,-1.29384 c 3.16918,-1.32059 -2.30795,1.24368 0,0 z m -31.41726,-0.18031 c -1.03839,-1.59001 1.28199,1.38725 0,0 z m 33.94415,-1.02291 c 3.48194,-1.71292 -2.79075,1.66659 0,0 z m -35.19308,-0.60957 c -1.71645,-2.69367 1.91654,2.48723 0,0 z m 37.06975,-0.64945 c 0.57197,-1.05248 0.50712,0.28395 0,0 z m -38.46111,-1.3413 c -0.58408,-1.59458 1.06089,1.64841 0,0 z m 39.77523,0.14832 c 1.05323,-0.9463 -0.70062,1.01408 0,0 z m 1.20044,-1.19429 c -0.005,-1.02617 0.96103,0.17089 0,0 z m -42.28388,-1.04489 c -1.10917,-2.28007 1.25114,1.86811 0,0 z m 43.56206,-0.39263 c 0.81006,-0.23705 -0.97003,1.06642 0,0 z m -44.70737,-2.04816 c -0.89474,-2.71569 1.06741,2.19781 0,0 z m -0.73282,-1.32579 c -2.6864,-0.15138 3.96055,-8.0599 0,0 z m 43.32201,-0.68876 c -6.55182,-8.55206 -9.1853,-26.09407 -22.87452,-22.40595 -11.89402,5.36075 -41.78911,-15.00785 -33.13437,-6.28773 -27.55052,-31.04987 -27.20445,-6.76243 -34.22279,-33.43227 -9.9867,-25.5612 -15.6352,-50.44959 -4.55298,-78.48183 5.37767,-27.77139 40.87705,-23.49508 60.61938,-14.20304 7.3323,6.71628 12.07695,8.33664 19.00068,4.18489 3.17915,-1.78311 12.24637,-3.65744 2.14464,-0.53762 -15.06495,10.52482 -3.99472,16.43337 -7.0671,27.70015 1.80809,15.54746 -16.44251,21.99216 -11.10427,15.61747 9.53556,12.90025 -2.12736,13.46978 -2.25104,10.66655 -1.84203,13.92293 9.25609,13.70955 3.7018,19.62094 6.42831,15.88479 29.49483,23.89052 43.70152,15.07106 -9.25058,-7.8884 -15.06123,-2.11251 -16.93787,-14.71043 12.50089,-1.0813 27.77866,-24.84206 19.18869,-18.02503 19.61556,-6.45199 21.55323,-22.2614 -3.38518,-14.18922 -8.93008,-2.801 32.71189,-1.62416 12.82348,-12.82556 -4.2547,-5.31586 -7.26531,-12.89606 -15.18,-14.75406 -8.69077,-3.09817 -5.97822,-19.699 -17.86318,-16.1274 22.50484,7.46449 36.79803,45.81589 36.17689,32.54644 -0.33789,7.10871 19.83782,1.1977 15.79068,5.08634 -4.83385,0.32344 67.74513,15.9852 53.13223,9.90201 -12.11205,3.11768 -54.16564,-19.15723 -51.65662,2.5318 -7.20821,12.46928 -18.33098,32.3389 -0.92246,30.17364 13.53852,7.56419 6.86206,5.6098 7.59983,21.14793 -12.6966,8.05968 -2.36807,14.28461 -15.76737,18.67979 -11.18796,1.21864 -25.83154,5.59899 -38.1,10.46872 -14.55349,-1.91273 4.45018,16.92353 1.13993,22.58241 z M 255.59223,475.03021 c 4.39075,-4.56178 -3.13698,1.16645 0,0 z m -18.08262,112.85891 c -1.8479,-1.178 1.21202,0.37548 0,0 z m -10.81299,-0.35875 c -3.24949,-0.83095 -4.28917,-0.47178 5e-5,0 l -5e-5,0 z m 2.00368,-0.0447 c 0.47998,-0.30349 3.64807,0.10367 0,0 z m 2.3,-0.27811 c 0.92946,-0.18673 0.17845,0.19301 0,0 z m -5.28091,-0.48092 c 0.73911,-0.92875 0.33637,0.47331 0,0 z m 1.05091,-0.68794 c 2.29495,-1.66119 0.60189,-0.0549 0,0 z m 1.8,-1.09235 c 2.73999,-1.70659 0.6658,0.0188 0,0 z m -0.15215,-2.4004 c -1.70275,-1.21131 2.14437,1.04523 0,0 z m -27.91838,-0.22568 c 0.0535,-0.51736 0.17322,0.31961 0,0 z m 0.12283,-0.54999 c 2.17582,-24.38437 3.96749,-22.48591 0,0 z m 25.6977,-0.48355 c -2.30639,-1.33418 2.39756,1.00035 0,0 z m -1.86111,-1.12131 c -1.91978,-1.19199 2.17852,0.95633 0,0 z m -2.60889,-1.52058 c 0.51385,-0.24162 1.38439,1.15365 0,0 z m -1.38105,-0.83628 c -2.45847,-1.36598 1.70147,0.42727 0,0 z m -2.35565,-1.56422 c -1.02816,-0.90767 1.32676,0.87603 0,0 z m -1.2433,-0.83406 c 0.14513,-0.43873 0.29595,0.42747 0,0 z m -0.56978,-0.3493 c -1.49359,-2.95295 -0.86555,-1.7033 0,0 z m -1.4554,-2.95535 c 0.0595,-0.4954 0.27008,0.5323 0,0 z m -0.37173,-0.76939 c -0.61404,-1.93237 0.77788,1.41365 0,0 z m -0.89886,-1.67808 c -0.21685,-1.06357 0.47375,0.89632 0,0 z m -0.41742,-0.75458 c -0.61583,-1.04025 0.56845,-0.0545 0,0 z m -0.94438,-1.6833 c -0.94988,-1.12383 -0.14207,-1.18162 0,0 z m -19.06801,-1.97267 c 3.9192,-21.44562 6.31378,-12.21194 0,0 z m 17.62395,-0.40615 c -1.12691,-2.23461 1.26578,1.87827 0,0 z m -1.2363,-2.00118 c -1.33427,-1.68095 0.23183,-0.6181 0,0 z m -1.21803,-1.86103 c -1.41771,-2.35793 0.92858,0.67472 0,0 z m -1.39723,-2.27567 c -0.8633,-1.23891 0.78101,0.40533 0,0 z m -1.15578,-1.91167 c -1.57372,-2.84325 1.2376,1.84237 0,0 z m -1.2889,-2.27591 c -0.0118,-0.9777 0.69163,1.47381 0,0 z m -1.34081,-2.50314 c -0.98525,-1.40953 0.48856,-0.41165 0,0 z m -1.30724,-2.98482 c -1.30805,-3.88763 1.4785,3.2411 0,0 z m -1.20279,-3.02602 c -1.28675,-3.83623 1.47209,3.39558 0,0 z m 5.4934,-3.44174 c 0.13685,-0.25859 0.51639,0.62496 0,0 z m -43.60648,-7.29 c 6.17816,-14.2803 23.10124,-43.4882 7.97072,-12.24 -5.16528,-0.67186 -3.02288,12.35092 -7.97072,12.24 z m 174.08074,-4.26 c 0.10502,-0.54089 0.10502,0.54089 0,0 z m -0.0524,-1.22631 c -0.49156,-2.14776 0.45522,1.35976 0,0 z m -71.20631,-9.09003 c -6.31363,-6.76606 8.0878,-2.64271 0,0 z m -119.2602,-4.91616 c 12.08842,-12.11237 0.0169,1.31897 0,0 z m 10.81102,-1.22227 c 4.44603,-4.89635 20.09528,-17.77928 0,0 z m 113.95563,-1.12527 c -5.90212,-4.96703 -11.64763,1.56193 0,0 l 0,0 z m -12.58293,-0.19145 c -0.92284,-10.8905 14.97966,-0.67695 0,0 z m 20.61967,-0.76851 c 0.0704,-0.7228 0.13076,0.5699 0,0 z m 0.33661,-0.59022 c 3.44777,-1.51724 0.8926,0.2598 0,0 z m -120.60578,-7.84821 c 13.64129,-14.89369 20.8637,-17.19599 2.1855,-1.69499 l -2.65533,2.32528 0.46983,-0.63029 z m 97.34149,-0.44887 c -5.88017,-13.56552 10.98344,-1.29134 0,0 z m 11.56429,-2.40891 c -12.46517,-6.12539 13.18548,-5.68376 0,0 z m 5.04,-2.5305 c 2.22035,-9.27013 16.73041,-0.63773 0,0 z m -10.977,-8.9394 c -2.30418,-6.98296 8.52887,-2.73433 0,0 z m -104.043,-3.26638 c 9.38565,-7.59125 8.42145,-5.75473 0,0 z m 115.11635,-1.89751 c -5.89598,-10.86929 8.80257,0.86421 0,0 z m 7.72117,-3.62428 c -1.80861,-9.50832 14.52849,-3.66468 0,0 z m -22.63752,-0.36572 c 0.65603,-0.6624 -0.37722,0.64463 0,0 z m 45.24947,-23.63001 c 0.0535,-0.51737 0.17322,0.31962 0,0 z m 0.14485,-1.20999 c 0.10566,-0.99522 0.0747,1.14542 0,0 z m -0.12648,-1.38 c 0.0965,-0.75101 0.0965,0.751 0,0 z m -0.83838,-3.63592 c -1.00314,-5.30774 0.79308,2.7268 0,0 z m -0.37051,-2.00408 c 0.10502,-0.54089 0.10502,0.54089 0,0 z m -0.12948,-0.77001 c 0.0535,-0.51737 0.17322,0.31962 0,0 z m 0,-2.16 c 0.0535,-0.51737 0.17322,0.31962 0,0 z m 0.11053,-0.51669 c 0.35516,-1.1176 0.7092,-0.67981 0,0 z m 0.96,-1.35707 c 0.4685,-0.39126 0.48096,0.21301 0,0 z m -0.3314,-0.91868 c 1.07536,-0.20072 0.19393,0.19925 0,0 z m -0.78088,-0.11626 c 0.79972,-0.2189 0.1443,0.21812 0,0 z m -43.95912,-2.35129 c -0.81276,-0.96703 0.94349,0.95687 0,0 z m -48.4086,-15.09 c -0.29753,-0.47264 0.87941,0.50315 0,0 z m -4.08,-1.31502 c -2.09515,-0.84145 2.83406,0.83302 0,0 z m -2.31,-0.97315 c -1.36406,-1.42572 1.74841,1.08542 0,0 z m 0.12,-0.66027 c 1.29162,-13.39129 7.57592,3.32349 0,0 z m -49.53039,-6.98951 c -1.79447,-2.75297 2.59537,2.02272 0,0 z m 52.38547,-3.85384 c 0.55505,-1.73364 1.28899,0.88756 0,0 z m 321.24859,76.54518 c 9.28607,-28.12167 -5.92409,0.78449 0,0 z M 364.0803,410.9998 c -16.23832,-12.39643 10.94033,-40.15338 8.52856,-32.14911 -17.41361,0.24463 -43.81528,36.60087 -8.52856,32.14911 z M 227.15236,382.48853 c -0.47708,-14.34933 26.45031,-28.7106 -0.186,-21.43192 -8.28912,3.10227 -9.03329,21.18062 0.186,21.43192 z m 23.08958,-15.13361 c 10.30478,-14.36787 -16.54703,-3.71374 0,0 z m -3.41221,-74.27456 c -2.47442,0.51663 -1.04295,2.53986 0,0 z"
         id="path3038"
         inkscape:connector-curvature="0" />
      <path
         style="fill:#d4ba68"
         d="M 370.0503,833.33869 C 229.77372,832.76802 96.505046,738.53162 48.288782,606.97853 -2.609206,477.32601 33.832046,319.54377 137.04075,225.81704 239.51872,127.47623 403.6387,103.08049 530.4441,166.87632 656.84197,226.7665 738.3942,367.56907 726.66329,507.06391 718.56168,653.06226 608.8653,785.93035 467.02433,821.60297 c -31.57034,8.43787 -64.31151,12.27693 -96.97403,11.73572 z m 14.45418,-18.71019 c 32.63371,-0.54143 54.66311,-24.90856 87.2658,-29.17828 -0.95498,16.19282 45.26464,-23.911 43.70129,-16.58734 11.62099,-11.39643 51.65898,-48.88966 37.57873,-37.80104 10.67836,-17.11067 41.23728,-33.62334 33.99448,-56.01482 2.66387,-19.31789 13.39815,-40.55073 2.79763,-57.77267 -25.69476,5.06987 -45.17401,16.09221 -69.38419,26.35427 -17.16667,12.03312 4.89038,-14.16749 -16.16038,4.00695 -6.76034,4.22256 -31.85677,2.02031 -28.49358,5.3172 18.80531,-13.50852 -8.84723,-30.12747 5.68715,-32.96253 8.46684,-17.95158 -10.88492,-12.89344 9.90838,-28.96874 13.61724,-13.97884 -45.3301,25.24608 -15.8984,-5.19237 19.63025,-29.08806 34.4384,-60.84334 46.30208,-93.69889 7.88331,-9.39876 2.562,-26.9124 2.40706,-33.3 -5.19481,-29.16809 -3.8026,-72.743 -46.80775,-58.03188 -19.29402,-2.75686 -57.18488,20.6452 -54.65204,6.57759 -15.85842,39.30367 -64.06363,27.50565 -89.80979,46.27309 -0.73095,-8.84723 -16.24857,-54.58043 -23.34992,-27.95323 -11.8938,2.64944 -12.30364,-38.33922 -16.65848,-32.58188 -12.02641,-14.46422 -52.86914,31.38721 -43.82166,19.67118 -11.82732,13.79916 -48.4372,17.75885 -38.12059,8.0951 14.73586,-14.98975 33.65268,-24.93341 8.10503,-34.5702 -14.23807,-25.72957 19.39125,-37.22602 33.73016,-50.75227 28.24272,-36.28168 3.49485,52.87156 26.63744,11.43256 21.22483,-10.28909 14.97681,-77.81092 -12.97456,-44.7 -12.67365,11.60137 -43.49621,40.79024 -34.19861,32.79525 -23.13431,18.07596 20.72931,-32.87537 12.72054,-41.21664 -36.72486,20.285 -34.01377,4.35937 -45.9537,22.87534 -31.92323,26.77258 -30.9015,70.97253 -50.18142,104.92356 -13.01845,14.9213 16.56138,22.1757 6.90324,26.82076 -23.00387,-13.1075 -20.30131,30.40889 -2.93647,13.62262 -28.47461,17.22296 -1.64503,12.32188 1.44386,9.00799 -21.86538,0.2906 -20.43896,28.55337 -0.043,9.40533 30.18745,-13.94036 -31.78831,13.35483 -15.22286,20.37788 0.75879,28.03332 12.16832,54.62317 22.90573,79.41417 -9.71744,33.37312 -7.45174,60.0715 -13.11394,95.41198 -20.77803,31.00508 -4.48524,52.39318 23.86316,69.83121 17.95209,15.35957 35.39825,28.90443 50.31661,12.54918 19.73379,-2.37433 5.6462,-60.53676 16.37879,-46.70679 0.12482,-18.01364 0.368,-33.70546 1.2103,-30.35877 -2.04663,-20.21832 -38.66421,-29.92699 -52.65292,-47.73307 -7.11972,-8.31162 -31.13207,-62.30477 -8.5429,-35.3869 9.25147,17.28386 -0.42709,-11.64582 17.02552,8.1846 23.02217,26.03911 50.83242,46.8639 88.84251,41.9275 40.05433,-7.53054 82.46091,-7.65333 118.5643,-29.12757 21.37972,-11.6123 24.78104,9.5601 31.86435,-7.38039 -18.7362,19.52228 -68.02005,52.77858 -63.18098,47.52276 -9.83711,9.15668 -41.19688,35.68772 -45.24528,20.16082 -21.20027,6.1027 0.13402,26.42471 -26.52389,22.76918 -6.92609,26.05101 -24.84309,37.62225 -22.7097,30.71485 -17.31921,-7.35709 -39.59094,36.00769 -10.41302,40.13509 20.56473,-5.11915 38.68579,1.67963 24.74171,20.7186 -51.75561,6.03556 63.11872,25.9426 37.26032,15.07807 19.55717,3.97728 37.94361,3.44065 54.89389,6.00159 z M 217.22649,754.78358 c 2.51085,-7.30508 4.00722,-1.79036 0,0 z m 8.98582,-6.27696 c 4.46051,-7.57437 4.65788,0.1718 0,0 z m 55.89941,-160.04637 c -4.9834,-23.09873 -21.62353,-22.47823 -39.56142,-18.87313 -14.76259,-3.00108 -51.25871,-35.8072 -38.70955,-28.13687 -19.31308,-22.65511 -29.79109,-56.1359 -16.79045,-86.31517 1.15428,-36.00744 48.18231,-30.49247 69.06,-15.5032 16.46221,7.08259 3.73268,43.73508 0.96867,39.12512 -11.58894,3.64344 -20.39754,16.19774 -8.0974,14.64593 3.97621,10.94447 1.94314,16.80958 10.74894,29.57019 10.16318,14.54974 57.98647,6.63149 22.76392,-4.32287 0.88878,-11.32696 44.32751,-50.90675 33.40926,-37.62517 -9.52095,-5.01112 -39.8728,0.88635 -5.1934,-3.36387 26.72977,-6.83105 96.03437,13.22042 69.39737,6.84693 -12.78345,1.90738 -54.76871,-19.41983 -51.48455,2.50969 -7.13154,13.03733 -17.3699,32.45197 -0.87282,30.13751 19.56527,4.66469 -1.50494,49.54262 -0.21294,35.80999 -16.30149,6.94619 -70.431,23.16409 -52.69976,15.72096 2.61127,5.61666 7.24203,16.69884 7.27413,19.77396 z M 256.47171,474.74446 c 2.02987,-3.92903 -4.6811,2.6802 0,0 z m -93.16042,59.06943 c 6.0849,-13.9312 21.32893,-39.84032 7.309,-11.17719 2.22945,-5.71674 -9.2645,16.72819 -7.309,11.17719 z M 265.2903,520.49267 c -5.6488,-5.43615 8.19089,-3.67604 0,0 z m -107.16246,-7.04891 c 2.24423,-2.36973 12.00153,-10.66952 0,0 z m 112.92246,-0.15527 c -5.98346,-4.08001 11.1337,-2.60258 0,0 z m -12.42416,-0.14724 c -2.45701,-9.21473 15.58274,-2.38964 0,0 z m -99.16853,-9.9221 c 16.60607,-17.63644 18.86172,-14.93613 0,0 z m 96.71662,0.21348 c -7.04158,-13.97782 10.67642,-0.37094 0,0 z m 10.83238,-2.64923 c -8.17477,-6.66114 11.17791,-3.65692 0,0 z m 5.39369,-2.46974 c 5.2131,-8.44234 13.94072,1.2166 0,0 l 0,0 z m -10.553,-8.7018 c -2.95948,-5.57686 8.38522,-3.96432 0,0 z m 11.1668,-5.05534 c -7.27872,-11.42309 7.96973,0.9239 0,0 z m 7.53461,-3.79627 c -2.10566,-8.88918 13.8163,-3.0758 0,0 z M 158.7628,448.85774 c 0.47517,-0.25218 0.11213,0.27041 0,0 z m 44.1275,-27.09529 c 4.275,-12.88106 4.29854,4.05228 0,0 z m -49.36999,-6.37721 c -1.57709,-1.58026 1.788,1.4183 0,0 z m 52.45,-3.735 c -0.1695,-1.1095 1.14596,0.39758 0,0 z m 42.39999,343.11292 c 1.43379,-9.10986 -20.96669,7.77743 -0.092,3.80977 l 0.092,-3.80977 0,0 z M 527.06653,488.24741 c 12.89303,-33.64879 -7.3359,1.35077 0,0 z M 364.2603,411.1197 c -19.07932,-12.59575 3.71585,-39.15421 7.11245,-32.31724 -17.54746,1.30999 -41.65965,37.21579 -7.11245,32.31724 z M 227.06637,382.68107 c 3.54999,-15.16166 23.89975,-32.77963 -3.49014,-19.03516 -4.9639,4.09219 -4.19098,19.82499 3.49014,19.03516 z m 23.04393,-15.27435 c 10.28531,-14.5485 -16.00631,-3.79411 0,0 z m -3.20232,-74.36562 c -2.18973,0.36864 -1.21681,2.50032 0,0 z"
         id="path3036"
         inkscape:connector-curvature="0" />
      <path
         style="fill:#ccab50"
         d="M 370.6503,833.2723 C 225.87789,833.11044 88.763294,732.71218 44.074802,595.14091 -2.613838,462.38942 40.764698,304.22684 149.6103,214.67872 257.59963,120.4759 424.74552,104.6741 548.6526,176.49002 c 121.55017,66.69264 194.72023,210.03586 176.36373,347.66632 -15.10689,146.53261 -132.9644,274.08247 -277.30396,301.96945 -25.31825,5.21781 -51.21611,7.61755 -77.06207,7.14651 z m 14.88,-18.10204 c 54.84316,-1.43352 109.36578,-16.58621 156.81384,-44.18645 -10.20253,-11.31619 -48.06401,13.54642 -18.57384,-7.1076 8.75677,-17.2994 42.68473,-51.28895 33.29571,-37.81577 11.05227,-14.03805 23.45833,-71.30738 30.71505,-51.73263 7.15368,-20.30533 16.65478,-78.02226 -22.07076,-50.14043 -15.29715,8.30381 -61.46095,26.33522 -53.25903,21.51869 14.10616,-19.46625 -13.68476,-11.22462 -17.62949,3.38067 -19.39002,11.96019 -25.53951,6.12276 -7.88197,-8.5128 10.6513,-7.58809 8.02251,-28.7744 -6.20748,-15.76166 5.4424,-20.97667 -5.81735,-22.12264 14.88852,-37.99267 -16.8035,5.78505 -39.94516,21.8709 -18.09653,-3.97944 18.87327,-28.35885 33.14525,-59.28241 44.49371,-91.28201 6.75487,-10.63088 -2.24606,-17.69461 2.55085,-31.90668 -5.47341,-29.60947 -4.28651,-73.08951 -47.27412,-59.06297 -25.02629,-2.37601 -51.72848,-10.20877 -59.60195,13.84174 -19.1748,35.44822 -97.03625,27.44187 -72.58099,28.11793 -4.42118,-14.53993 34.61547,-17.28069 29.19848,-15.28603 7.94285,-4.28474 21.49478,-31.32511 25.93108,-26.34754 -13.40493,20.24735 -44.17545,23.97372 -63.75688,11.16941 -8.44378,-9.13768 -10.20918,33.92153 -21.34235,4.14748 7.33173,-14.64483 -6.62405,-24.91341 8.08698,-34.38125 10.43641,-12.29775 19.42101,17.11473 31.21903,-6.38429 13.19014,-2.46821 29.31168,-23.48863 10.86921,-18.8719 4.60783,-14.45221 37.58336,-26.76053 29.09293,-18.83938 6.94702,-12.34221 -35.34519,-22.83008 -27.54,-24.18551 -16.53164,-7.33119 -24.71801,6.9543 -33.28236,19.56108 -6.3134,8.56425 -14.68844,29.71203 -10.21051,22.96314 -8.62757,11.7789 -24.5469,16.01507 -31.62534,29.90207 -10.01867,11.78665 16.21613,-49.99739 -10.38179,-22.14522 -14.94087,9.04454 -28.81197,24.45431 -14.28097,-2.29616 12.65624,-6.34544 35.50352,-32.68343 27.39481,-34.14001 7.82616,19.93875 15.25559,-53.42093 16.47702,-43.19039 -11.06223,-41.61591 -77.23753,10.51736 -65.49251,10.24595 21.36457,-22.83774 33.97889,-58.7282 26.78698,-90.15939 -26.30937,-60.12332 -4.44112,102.23376 -11.02704,49.24155 -2.5279,33.45024 -30.4114,51.80773 -60.25487,59.00209 -20.20971,21.71445 -34.7175,52.66764 -40.6688,83.21636 -13.8997,22.46741 -11.03927,64.89361 -47.68474,45.89241 -14.58409,-2.13945 -44.714278,-4.41164 -12.735454,-0.66672 17.128584,2.67521 56.696474,-0.13874 35.865574,25.02814 -16.7289,4.057 -58.730122,17.74192 -18.58639,6.01698 21.95147,-16.55894 30.76225,7.63775 6.34639,12.0147 -33.516706,16.74485 36.35404,-20.62944 9.66,7.77587 -16.12382,8.80859 -46.328422,27.90938 -12.96,8.7734 32.26605,-26.84363 14.06268,38.8933 31.42207,55.69643 22.35213,26.57955 -3.70664,54.47251 2.90106,80.1888 -0.30595,25.83816 -17.34447,101.38703 -15.70231,79.04103 20.58784,14.55243 96.85327,36.07265 74.53359,47.70802 27.32439,-14.38781 20.07911,-6.52476 30.54313,-26.02506 2.5298,-16.69885 -3.14986,-56.5327 -4.52651,-43.54601 2.50202,-13.55739 3.11618,-18.53018 -15.57493,-35.14553 -24.43737,-9.89046 -57.28109,-76.76844 -50.90745,-54.79245 -13.03179,-26.8624 17.86886,13.96155 12.11601,2.94 -12.81946,-33.98347 66.71689,54.0762 37.70738,28.51847 29.93658,14.44555 64.02425,16.26032 95.84931,7.3982 43.26131,-1.54975 83.06509,-20.11888 119.32627,-42.32734 1.49316,5.43189 12.37238,10.11351 -0.0185,12.45472 -24.51762,17.69501 -51.15917,39.27089 -75.94442,49.8823 -18.70112,6.3462 -37.6089,4.67401 -41.43893,21.5893 -12.40138,6.04439 4.35678,22.16865 -20.02732,17.5259 3.45755,24.37873 -21.85947,14.16542 -22.3695,30.81952 -17.72162,-7.26338 -39.94769,36.20633 -10.72651,40.48262 17.29384,-4.47399 42.46255,0.45487 24.07363,19.7548 -8.00872,7.82052 -27.91711,5.1923 -3.5744,10.64379 31.72149,8.75888 64.7746,12.59329 97.65829,11.75773 z m -168.12,-60.81193 c 1.86519,-6.1191 3.67811,-1.38761 0,0 z m 8.93653,-5.91369 c 4.65977,-8.83768 3.20631,1.46806 0,0 z m 50.3386,-169.88745 c -8.17745,-25.25291 -38.25145,3.00757 -50.63513,-18.50154 -19.48069,-14.55714 -35.07759,-28.7143 -40.41345,-52.32544 -9.36065,-22.71146 -4.20234,-62.13919 16.8298,-76.86906 24.18845,-8.28182 74.34521,4.37499 59.84917,37.61261 0.32898,12.75039 -14.48392,20.93548 -10.82121,13.87864 3.74065,9.776 -7.49932,17.83309 -2.62226,11.63781 4.35534,10.871 1.24818,17.45646 12.55663,30.30732 11.6809,13.27454 54.18458,4.37555 21.50801,-5.28732 7.04124,-16.9674 37.18809,-47.07969 33.43573,-39.33326 25.47582,-10.4882 36.01971,40.43351 19.04339,33.1043 -19.41447,2.01465 -16.31767,7.76104 -3.10242,10.54741 11.07042,9.43681 -21.59279,36.84676 -13.3301,33.13608 -21.17697,1.91177 -56.87456,12.32888 -38.43158,28.83225 l -3.86658,-6.73984 0,4e-5 z M 256.65201,474.79553 c 0.0383,-6.46008 -4.82268,3.93767 0,0 z m 8.09562,45.15943 c -2.42755,-7.30216 7.51052,1.86344 0,0 z m 6.27878,-6.81775 c -5.41928,-3.59156 10.67504,-2.39042 0,0 z m -12.56158,-0.21063 c 0.17401,-9.75755 13.04031,-0.68411 0,0 z m -2.20758,-9.48655 c -6.60898,-10.10632 9.38285,-2.4373 0,0 z m 11.31478,-2.56427 c -10.74349,-5.89886 10.36977,-3.37462 0,0 z m 5.04821,-2.57838 c 16.88263,-11.85739 -34.11107,8.31091 0,0 l 0,0 z m -10.77365,-8.80855 c -1.95086,-4.99129 6.56676,-2.11384 0,0 z m 10.97773,-5.26003 c -5.40215,-8.35535 7.15714,0.3426 0,0 z m 7.7269,-3.65629 c -0.84497,-8.36881 12.78723,-3.26523 0,0 z m 41.67425,-4.28975 c 1.1492,-2.89196 6.56409,2.3534 0,0 z m 10.26512,-23.63251 c -1.17392,-9.46262 1.3774,3.01474 0,0 z m 1.19971,-0.78 c 0.65603,-0.6624 -0.37722,0.64463 0,0 z m 0.55026,-0.74743 c 1.52769,-1.81178 -1.24251,1.81424 0,0 z m 0.99347,-1.07429 c 2.44404,-2.53541 0.796,-0.37914 0,0 z m 1.33627,-1.33372 c 1.0277,-1.0823 1.53708,-0.89181 0,0 z m -4.54105,-1.10456 c 0.10502,-0.54089 0.10502,0.54089 0,0 z m 6.00044,-0.11817 c 3.22149,-2.42765 0.87527,-0.22042 0,0 z m 2.14061,-1.55428 c 3.29472,-2.46524 -0.59485,1.1598 0,0 z m -8.63053,-0.53756 c 0.0535,-0.51737 0.17322,0.31962 0,0 z m -0.20466,-0.86925 c 0.006,-1.34312 0.3633,1.88878 0,0 z m 10.40519,0.39191 c 0.46279,-0.62143 3.50009,-1.29429 0,0 z m -11.81166,-1.95629 c -1.27352,-6.61705 0.19647,-1.66891 0,0 z m -0.89495,-6.09636 c 0.0704,-0.7228 0.13076,0.5699 0,0 z m -0.24127,-1.83328 c -0.49488,-6.07177 0.63727,4.4098 0,0 z m -1.1518,-1.00921 c -2.29055,-8.85542 0.86362,1.2406 0,0 z m 0.3774,-1.01622 c 0.79972,-0.2189 0.1443,0.21812 0,0 z m -24.08772,-3.76129 c 1.02089,-0.20002 -0.9392,0.616 0,0 z m 22.1478,-0.95639 c -1.11591,-3.97228 1.28367,3.56485 0,0 z m -19.8678,-0.24947 c 1.18193,-0.95078 -0.25044,0.61274 0,0 z m -3.20568,-1.97414 c 0.10566,-0.99522 0.0747,1.14542 0,0 z m 5.84568,-0.41292 c 0.22772,-0.60425 0.37273,0.43519 0,0 z m -5.75111,-0.73708 c -0.0628,-2.43872 0.35984,-0.40206 0,0 z m 6.83378,-0.72 c 0.41727,-0.99097 0.67248,-0.70324 0,0 z m -6.57428,-1.25 c 0.38323,-3.97455 0.0472,1.43046 0,0 z m 7.84191,-1.14 c 0.51728,-2.7233 0.37979,0.74437 0,0 z m -8.82083,-1.25001 c 0.0535,-0.51736 0.17322,0.31962 0,0 z m -0.11052,-0.66999 c 0.10502,-0.54089 0.10502,0.54089 0,0 z m -0.31175,-1.6272 c -0.64296,-4.64103 0.88074,4.37059 0,0 z m 10.38227,0.61719 c 0.0535,-0.51736 0.17322,0.31962 0,0 z m 0.18605,-0.6657 c 1.35123,-5.25981 -0.28507,1.79456 0,0 z M 206.1303,417.55025 c 0.45977,-0.65559 0.11652,0.66984 0,0 z m 106.81895,-0.9 c 0.10502,-0.54089 0.10502,0.54089 0,0 z m -11.28,-0.24 c 0.10502,-0.54089 0.10502,0.54089 0,0 z m 13.07438,-2.53333 c -0.40882,-1.46074 0.63649,1.20879 0,0 z m -1.06994,-0.16667 c 0.0704,-0.7228 0.13076,0.5699 0,0 z m -64.70339,-1.32377 c 0.9473,-1.08627 0.11493,0.74666 0,0 z m 52.11432,-0.71623 c 0.10566,-0.99522 0.0747,1.14542 0,0 z m -0.13537,-1.86 c 0.10502,-0.54089 0.10502,0.54089 0,0 z m -0.94832,-2.03556 c -0.0966,-0.53098 0.51727,0.40534 0,0 z m -0.44291,-0.56927 c 0.13069,-0.30207 0.2587,0.5357 0,0 z m -1.43722,-1.93632 c -0.69239,-1.4622 0.83406,1.05439 0,0 z m -1.02078,-1.68068 c 0.0471,-0.58516 0.40915,0.69528 0,0 z m -1.25297,-2.13167 c -0.0691,-12.28053 0.003,-1.33322 0,0 z m -1.55998,-4.5765 c -0.46123,-2.70661 0.47306,0.94692 0,0 z m 0.40323,-0.14292 c 0.28005,-0.41217 0.34563,0.22867 0,0 z m -62.16,-1.74796 c -24.59766,-3.91073 -18.82795,-41.13335 2.61535,-45.76519 20.49023,-5.78942 15.74621,3.07265 25.24554,10.53058 -17.94088,31.95815 1.70638,9.59856 -4.82954,19.93608 -6.38821,6.35717 -12.70707,16.19054 -23.03135,15.29853 z m -5.34419,-12.30578 c 0.73673,-14.62319 25.20446,-30.78896 -1.22366,-21.0916 -7.6853,3.05249 -7.65205,21.90449 1.22366,21.0916 z m 22.65116,-15.11881 c 11.46512,-14.53153 -15.49568,-4.65632 0,0 z m 44.26345,26.70547 c 0.15903,-1.64379 0.58006,-1.07418 0,0 z m -0.82042,-1.58596 c 1.46449,-0.17508 0.2889,0.17708 0,0 z m -1.6875,-0.23601 c 0.68816,-0.61289 1.90043,0.90064 0,0 z m -2.28579,-1.24203 c 0.33825,-0.22715 0.72057,0.809 0,0 z m -40.81671,363.544 c -5.62014,-12.73999 -13.41244,15.3243 0,0 z M 118.4703,516.4803 c 15.41016,-11.04439 24.53317,-19.07502 4.02061,-3.34721 -0.46572,0.48272 -12.23388,8.88102 -4.02061,3.34721 z m 457.23923,-1.1393 c -0.63248,-0.11357 0.0118,1.06844 0,0 z M 526.1443,488.63552 c 9.24387,-20.22273 -1.22346,-10.30527 0,0 z m -161.194,-73.30604 c 14.58358,2.1526 -23.05405,-25.63567 6.2573,-29.89832 4.06479,-27.55527 -61.07564,30.98695 -6.2573,29.89832 z"
         id="path3034"
         inkscape:connector-curvature="0" />
      <path
         style="fill:#cda33c"
         d="M 366.6303,833.1616 C 219.38708,831.34182 81.46043,725.80294 40.692038,584.39293 -2.303122,449.01657 47.731598,290.96504 161.17577,205.34466 c 114.339,-91.79341 287.0048,-98.43628 408.22586,-16.11546 113.29349,72.79897 176.25641,214.58937 153.85242,347.46752 -20.37091,144.00026 -139.76179,266.46327 -283.06143,290.83631 -24.23537,4.4602 -48.93294,6.27298 -73.56232,5.62857 z m 23.4,-17.9822 c 53.40199,-2.26058 106.41419,-17.17303 152.58,-44.23854 -9.96384,-12.13226 -48.0716,13.00326 -18.79041,-7.00633 0.75789,-16.55233 40.67016,-53.12269 33.40387,-37.66853 11.51328,-14.62258 37.31777,-31.49294 30.87122,-52.06159 1.72577,-16.34227 7.27011,-38.77862 11.76544,-47.13416 4.45752,-37.25484 6.91687,-13.63949 11.7624,-22.15561 0.0334,-28.83252 -7.32966,-54.69914 -14.96667,-81.47452 -2.89297,-11.05355 -10.15516,-34.94949 -6.77139,-24.28987 -3.92729,-19.52356 -15.42558,-40.00104 -17.80367,-57.93 -4.94365,-8.53974 -8.65008,-36.79254 -10.34992,-42.81547 1.36877,23.19338 -5.90234,30.0591 -18.75793,9.72266 -9.12494,3.90296 -0.004,41.47773 -2.82619,34.08281 14.10181,32.96672 1.71712,68.8403 -14.03297,98.91167 -19.8737,17.29735 14.83302,10.45939 16.15584,-8.33332 11.51548,-19.17279 16.06045,-30.74979 19.88051,-33.78404 7.77311,-13.6664 12.42218,-25.6942 10.27848,1.13574 6.89113,6.85395 15.11396,26.88237 7.25453,22.20867 -10.90651,11.89383 0.33893,17.70952 -2.51316,32.33951 5.60277,18.86129 18.60683,-20.23762 11.1026,12.80124 17.06283,2.67552 -11.75618,28.67962 -11.7626,29.76308 -8.50751,0.42104 -25.50568,24.87534 -14.94226,1.07692 -4.33755,-4.18298 -27.35891,21.2466 -26.65907,20.85547 -4.31948,9.23968 -13.53996,14.52094 -19.19656,22.58453 8.0824,-5.63964 -22.29773,7.75895 -22.60211,7.89572 -46.07556,19.26642 24.78065,-32.3537 -1.58223,-28.86297 -23.69347,9.41736 0.68708,-16.669 -10.34977,-18.19493 11.14812,-11.90501 23.16467,-22.03506 -0.25712,-10.0953 -30.80886,18.6288 21.03236,-57.45729 17.41423,-43.95161 11.83513,-31.2638 32.95762,-61.01098 29.12095,-95.84097 -9.88131,12.76155 -38.34855,-73.60836 -21.74155,-60.60926 -2.48448,-30.7649 -65.54022,-63.2812 -47.13221,-45.06454 -8.36233,-18.31112 -56.08779,-28.95833 -40.22792,-34.15443 -15.62107,9.1174 -20.00395,20.89228 -16.82821,-0.344 14.42178,-20.7097 -3.11226,-41.38161 -32.96735,-29.18471 -17.50863,13.82119 3.38057,8.71495 -20.39949,21.99644 -18.5493,10.77474 -9.12888,20.83772 -23.85937,45.16774 9.29224,3.73123 -29.02301,25.96956 -33.84909,33.42944 0.62322,-34.19579 18.50574,-65.07927 20.9326,-98.59352 -9.98117,-41.91948 -81.48187,13.44797 -66.38064,9.31336 21.98238,-21.88709 33.78536,-57.97988 27.95227,-89.28264 -28.13171,-54.9405 -3.86583,82.57008 -11.46816,43.37622 -1.45054,30.33496 -22.32492,54.46438 -52.05698,60.30165 -24.15261,11.91088 -37.63965,44.03375 -44.52223,70.37229 -4.36864,20.00102 -12.6161,49.11975 -30.89153,17.59978 31.01769,10.03804 13.06071,64.80124 -17.57354,44.86604 -15.63753,-2.6873 -57.467522,-5.45253 -19.109474,-0.98494 20.857044,-3.90048 65.831244,11.71956 30.897214,26.8078 -15.0323,3.87412 -56.886802,17.87577 -20.76141,7.30502 10.27856,-2.33059 43.90852,-16.82121 26.00998,3.72814 -10.93039,5.713 -51.99146,25.28524 -18.91653,10.31505 16.25726,-16.38757 36.40388,-2.95259 11.64407,6.42166 -10.66942,5.77127 -45.654796,27.95574 -15.34277,10.5834 12.09593,-11.77418 42.58976,-18.36257 19.03724,1.15426 -14.87883,10.38692 -21.50783,17.28192 -2.72959,3.1778 27.16408,-46.24849 12.00811,133.45079 27.49046,53.13913 18.1625,24.35245 -8.50807,49.69043 -0.30936,73.04902 0.80171,26.81022 -17.47371,59.07828 -13.20068,81.32418 64.6366,65.28772 157.10681,101.37104 248.87821,97.24936 z m -128.76,-45.43188 c -1.19644,-1.06696 1.08107,0.26644 0,0 z m -43.56415,-15.75361 c 1.51273,-6.37778 2.78203,0.19372 0,0 z m 8.87015,-5.68631 c 4.00427,-5.49622 3.10768,-0.35234 0,0 z m 48.314,-81.45735 c 0.70997,-0.73171 0.1292,0.83114 0,0 z m 236.70405,-19.1641 c 0.5465,-2.75684 2.91236,-0.0712 0,0 z m 2.45595,-1.21664 c 3.25029,-2.56217 0.88645,0.41093 0,0 z m -0.93999,-1.0732 c 2.1496,-4.00529 0.72169,-0.021 0,0 z m 3.21999,-0.11615 c 0.57143,-0.69286 4.54146,-1.93322 0,0 z m 2.29,-1.39647 c 4.00095,-2.87886 1.39586,-0.0198 0,0 z m -4.20849,-0.25344 c 1.50338,-3.35494 0.72245,-0.46791 0,0 z m 6.35849,-0.99744 c 3.25351,-2.42236 1.05016,-0.18993 0,0 z m 1.92,-1.20347 c 3.68769,-2.73449 0.94222,-0.079 0,0 z m 2.106,-1.44588 c 0.25667,-0.50064 3.07899,-1.15456 0,0 z m 1.734,-1.06282 c 3.82373,-2.56017 1.10946,-0.22494 0,0 z m 2.226,-1.45941 c 0.36268,-0.55481 3.61668,-1.38751 0,0 z m 1.854,-1.06614 c 4.32947,-3.61359 0.93664,0.68643 0,0 z m 2.4,-1.41167 c 3.88716,-3.02552 1.29936,0.70535 0,0 z m 2.64,-1.25051 c 6.87162,-2.57657 1.25566,0.0215 0,0 z m 4.29411,-1.3881 c 7.87353,-1.58028 4.05813,-0.267 0,0 z m 5.21589,-0.85728 c 0.92946,-0.18673 0.17845,0.19301 0,0 z m 1.41,-0.15728 c 0.15826,-0.40032 1.07145,0.35487 0,0 z M 227.51586,561.2794 c -20.65719,-14.76132 -35.23693,-29.87276 -41.90095,-53.6545 -9.08149,-23.51425 -4.85861,-67.208 21.29539,-78.50172 21.27895,-3.3662 68.23878,5.7952 55.20184,35.31194 5.19223,18.50585 -5.17195,32.42707 -8.89335,20.81388 -3.6503,4.03849 -11.56472,0.54712 -3.93038,3.67481 -0.20962,14.9244 3.51502,18.43464 8.83079,32.46821 20.32511,27.49962 66.16551,-15.50353 77.71727,9.24984 -5.18482,16.14169 -10.68711,31.74592 -32.02617,23.76281 -13.64266,-3.37509 -17.56656,-16.04032 -27.90761,1.06965 -16.74591,-13.3897 -23.84483,6.84441 -41.84922,2.8181 -2.56508,0.5244 -3.51133,9.55244 -6.53761,2.98698 z m 28.20231,-85.88007 c 6.72216,-5.31567 -6.44803,0.46451 0,0 z m 334.77213,64.43092 c 0.46194,-1.01102 1.07891,0.80006 0,0 z m -2.87053,-13.31001 c 0.0535,-0.51737 0.17322,0.31962 0,0 z m -322.80912,-6.62396 c -2.57642,-8.16631 7.3765,2.10676 0,0 z m 6.13709,-6.88206 c -4.70703,-3.69008 10.63211,-1.65823 0,0 z m -12.53879,-0.25376 c 0.43154,-9.41669 12.56634,-0.10497 0,0 z m -2.02103,-9.34206 c -7.01985,-10.39931 9.39112,-3.34267 0,0 z m 10.94238,-2.65426 c -9.3032,-5.69147 10.32999,-2.86742 0,0 z m 5.25,-2.5235 c 6.38498,-8.07426 13.81696,-0.0853 0,0 z m -10.87836,-8.96039 c -1.4131,-4.89501 6.14053,-1.82246 0,0 z m 11.48457,-4.85039 c -5.95175,-7.0152 6.07536,-1.9344 0,0 z m 7.64379,-3.723 c -2.06902,-7.92477 12.28057,-3.93924 0,0 z m 44.13777,-54.66244 c -16.42511,-9.05857 10.49807,-57.05956 0.148,-46.62525 12.89683,-0.2557 18.13164,13.41766 31.65392,-4.93549 28.04207,-10.22608 67.84573,25.57429 26.38287,40.78147 -24.6893,20.88897 -54.39839,-27.79179 -58.18479,10.77927 z m 43.40223,-10.88539 c 3.63896,-0.73346 -23.52686,-26.11708 2.8373,-29.72787 1.40587,-25.33458 -52.89008,27.05567 -13.3973,29.88856 l 5.33611,0.0715 5.22389,-0.23222 0,0 z m -136.14,-20.39789 c -32.4682,-8.89068 -9.23882,-54.77594 18.42247,-46.56866 4.75731,4.63233 -6.00119,34.84311 4.04944,24.20028 -7.26798,12.90746 12.17405,-2.89853 -6.43115,14.82257 -4.09407,4.1996 -9.82686,8.41913 -16.04076,7.54581 z m -5.66081,-11.51446 c 1.2201,-14.39866 26.6204,-30.43643 -0.3079,-21.91419 -7.86506,3.4725 -8.31206,19.84454 0.3079,21.91419 z m 23.26778,-15.6819 c 11.46512,-14.53153 -15.49568,-4.65632 0,0 z m 276.48369,121.14951 c 10.79115,-19.2383 -2.5628,-13.24118 0,0 z m -54.2112,-228.00404 c 6.30171,-15.87606 21.00366,-63.32667 25.035,-48.96 -10.05259,14.87453 -32.53146,30.63065 -25.035,48.96 z"
         id="path3032"
         inkscape:connector-curvature="0" />
      <path
         style="fill:#c59a38"
         d="M 366.6303,833.1616 C 219.38708,831.34182 81.46043,725.80294 40.692038,584.39293 -2.303122,449.01657 47.731598,290.96504 161.17577,205.34466 c 114.339,-91.79341 287.0048,-98.43628 408.22586,-16.11546 113.29349,72.79897 176.25641,214.58937 153.85242,347.46752 -20.37091,144.00026 -139.76179,266.46327 -283.06143,290.83631 -24.23537,4.4602 -48.93294,6.27298 -73.56232,5.62857 z m 23.4,-17.9822 c 53.40199,-2.26058 106.41419,-17.17303 152.58,-44.23854 -9.96384,-12.13226 -48.0716,13.00326 -18.79041,-7.00633 0.75789,-16.55233 40.67016,-53.12269 33.40387,-37.66853 11.51328,-14.62258 37.31777,-31.49294 30.87122,-52.06159 1.27227,-16.47612 8.7096,-44.21832 12.24588,-47.45592 2.07529,-12.12789 18.80885,-8.53902 11.01649,-18.31715 2.65821,-29.97802 -7.87821,-56.25201 -14.09851,-84.21368 -3.09255,-9.38996 -12.25371,-36.08518 -7.42214,-25.76894 -3.93337,-18.3028 -21.23482,-68.39048 -18.41105,-56.90362 -7.48,-15.75607 -8.59459,-76.93869 -12.12409,-29.09485 1.38499,27.86667 -24.15719,-28.27177 -20.53649,6.61861 -5.55236,20.78042 10.26594,39.35738 7.20154,59.74756 -1.73066,22.72733 -10.43729,45.27467 -22.43633,64.43386 -23.08165,32.71996 63.85319,-39.78229 22.20073,-17.04003 10.04623,-9.37928 31.38539,-41.85713 20.76142,-33 8.16483,-27.77094 11.37922,35.31986 9.10569,26.27135 3.62963,7.69536 4.08229,38.32166 0.73312,27.66871 -5.44253,27.61305 19.25743,-2.91582 12.18527,23.0624 11.34542,-5.66337 -10.42182,15.67894 -8.06926,24.25948 -11.27178,1.92674 -30.73762,29.16363 -17.11565,-1.14057 -24.04061,13.64488 -88.18448,54.62764 -67.58703,56.06231 -11.56496,4.69216 -31.04702,11.01352 -10.41381,-6.78134 11.42305,-6.69549 11.80492,-32.05291 -4.40048,-18.29021 7.88855,-20.99512 -8.17293,-19.94176 14.14955,-36.13243 -4.91214,-3.34753 -44.67038,24.92251 -17.59896,-5.00197 20.66834,-30.71832 35.2147,-64.76481 47.69196,-99.36168 2.87712,-25.97327 5.95754,-54.33303 0.49172,-80.5148 -6.85673,-17.45403 -14.9355,-58.22727 -38.08915,-50.58981 -6.14766,-17.00463 -37.62233,-17.77947 -42.87184,-39.24562 -15.96331,-15.16737 -23.65646,-29.72685 -7.49663,-43.6395 -34.22744,-4.1721 -69.15211,1.65786 -102.90313,-7.88121 -33.18866,-12.42864 -52.9379,6.78128 -78.18773,27.93282 -35.46966,24.08586 40.48853,-51.6933 13.39539,-37.63271 9.81785,-17.29107 -26.14837,-57.41493 -10.02804,-59.9313 -1.65438,34.37738 9.91672,72.46205 -16.23431,101.17887 -25.49446,12.31616 -51.1707,18.4496 -63.12682,46.86018 -15.38503,20.44424 -14.25056,57.79185 -29.70415,71.7655 -14.66833,-14.37764 -21.12165,-18.83162 -1.48093,-0.96872 3.91997,17.77444 -9.01486,46.00813 -33.71098,30.57906 -16.230956,-2.7551 -58.674896,-5.45375 -17.635808,-0.76943 16.703558,2.46005 61.583518,0.66523 36.469658,25.20146 -15.07081,3.45435 -68.335202,21.15992 -24.02022,8.15107 18.60306,-12.73227 43.68024,-2.23699 14.61042,8.8676 -12.7726,6.43037 -38.450906,18.76439 -10.29222,5.98715 16.23822,-15.29978 36.50829,-4.78401 11.84785,6.32061 -13.51914,7.41873 -44.514768,27.46494 -12.98387,9.28187 11.57314,-10.9864 39.01087,-16.88776 17.54813,1.79794 -16.04748,11.2233 -23.006,18.58125 -2.03736,2.66072 14.59358,-21.49642 27.3879,78.64643 23.2825,48.30284 25.06464,23.86783 -9.48312,50.96223 4.4619,74.06638 -2.69583,27.4835 -17.7596,62.56683 -15.64088,86.00831 64.65479,65.48175 157.2707,101.69508 249.19397,97.56382 z M 261.35854,769.7535 c -1.25108,-1.05961 0.87279,0.17604 0,0 z m -43.65239,-15.75959 c 1.51273,-6.37778 2.78203,0.19372 0,0 z m 8.87015,-5.68631 c 4.00427,-5.49622 3.10768,-0.35234 0,0 z m 48.314,-81.45735 c 0.70997,-0.73171 0.1292,0.83114 0,0 z M 227.51586,561.2794 c -20.65719,-14.76132 -35.23693,-29.87276 -41.90095,-53.6545 -9.08149,-23.51425 -4.85861,-67.208 21.29539,-78.50172 21.27895,-3.3662 68.23878,5.7952 55.20184,35.31194 5.19223,18.50585 -5.17195,32.42707 -8.89335,20.81388 -3.6503,4.03849 -11.56472,0.54712 -3.93038,3.67481 -0.20962,14.9244 3.51502,18.43464 8.83079,32.46821 20.32511,27.49962 66.16551,-15.50353 77.71727,9.24984 -5.18482,16.14169 -10.68711,31.74592 -32.02617,23.76281 -13.64266,-3.37509 -17.56656,-16.04032 -27.90761,1.06965 -16.74591,-13.3897 -23.84483,6.84441 -41.84922,2.8181 -2.56508,0.5244 -3.51133,9.55244 -6.53761,2.98698 z m 28.20231,-85.88007 c 6.72216,-5.31567 -6.44803,0.46451 0,0 z m 333.65637,77.81092 c 0.5259,-1.84599 -0.23064,1.50785 0,0 z M 264.81065,519.89628 c -2.57642,-8.16631 7.3765,2.10676 0,0 z m 6.13709,-6.88206 c -4.70703,-3.69008 10.63211,-1.65823 0,0 z m -12.53879,-0.25376 c 0.43154,-9.41669 12.56634,-0.10497 0,0 z m -2.02103,-9.34206 c -7.01985,-10.39931 9.39112,-3.34267 0,0 z m 10.94238,-2.65426 c -9.3032,-5.69147 10.32999,-2.86742 0,0 z m 5.25,-2.5235 c 6.38498,-8.07426 13.81696,-0.0853 0,0 z m -10.87836,-8.96039 c -1.4131,-4.89501 6.14053,-1.82246 0,0 z m 11.48457,-4.85039 c -5.95175,-7.0152 6.07536,-1.9344 0,0 z m 7.64379,-3.723 c -2.06902,-7.92477 12.28057,-3.93924 0,0 z m 44.13777,-54.66244 c -14.82377,-7.85381 7.85999,-52.29879 -2.04812,-43.18365 10.79139,-14.19999 20.02081,16.74655 32.11788,-7.60422 27.51647,-12.35308 70.78967,24.16552 28.11503,40.00859 -24.68931,20.88897 -54.3984,-27.7918 -58.18479,10.77928 z m 43.40223,-10.88539 c 3.63896,-0.73346 -23.52686,-26.11708 2.8373,-29.72787 1.40587,-25.33458 -52.89008,27.05567 -13.3973,29.88856 l 5.33611,0.0715 5.22389,-0.23222 0,0 z m -136.14,-20.39789 c -32.4682,-8.89068 -9.23882,-54.77594 18.42247,-46.56866 4.75731,4.63233 -6.00119,34.84311 4.04944,24.20028 -7.26798,12.90746 12.17405,-2.89853 -6.43115,14.82257 -4.09407,4.1996 -9.82686,8.41913 -16.04076,7.54581 z m -5.66081,-11.51446 c 1.2201,-14.39866 26.6204,-30.43643 -0.3079,-21.91419 -7.86506,3.4725 -8.31206,19.84454 0.3079,21.91419 z m 23.26778,-15.6819 c 11.46512,-14.53153 -15.49568,-4.65632 0,0 z m 38.25303,21.74607 c 6.90324,-30.98911 17.50766,-62.50703 41.2044,-85.71366 11.23078,-15.13974 47.64297,-26.76365 31.57222,-9.69001 -6.13193,3.91345 -22.83426,19.47498 -23.67898,27.10474 -8.72898,29.32583 -20.66059,43.41736 -45.72664,64.63689 l -2.04671,2.40093 -1.32429,1.26111 0,0 z m 162.05171,-56.31402 c 0.27235,-1.15569 0.79937,0.61519 0,0 z m -45.61093,-48.68917 c -4.12311,-5.05912 4.13061,2.42825 0,0 z m 121.83737,204.42287 c 13.2024,-33.12324 -5.20451,-3.17186 0,0 z M 472.05712,260.91894 c 5.97379,-15.6217 20.57466,-63.09018 25.07405,-49.22869 -10.05333,15.19419 -32.56227,29.87496 -25.07405,49.22869 z"
         id="path3030"
         inkscape:connector-curvature="0" />
      <path
         style="fill:#8e7a48"
         d="M 366.7503,833.1616 C 226.37503,831.16704 93.685334,735.58296 46.998698,603.20686 -1.983982,473.99586 35.17307,318.02238 137.77918,225.28174 c 103.93047,-99.34827 270.8447,-122.43432 398.033,-55.60697 127.29124,62.82565 206.39781,208.31704 189.71878,349.28977 -12.94385,144.43612 -125.40137,272.43439 -266.65231,304.60343 -30.10973,7.26666 -61.17302,10.4031 -92.12835,9.59363 z m 23.7,-17.98371 C 533.87903,811.52184 666.00853,703.81762 699.23409,564.37334 733.81264,434.79967 680.2927,287.89814 569.93458,211.44572 455.0808,126.66256 285.58925,129.62501 173.78117,218.3752 64.468634,299.80352 16.66265,451.85367 58.59479,581.32712 96.893834,709.5454 218.86473,807.13942 352.79377,814.6046 c 12.52847,0.9987 25.10326,0.82624 37.65653,0.57329 z M 218.17357,753.31056 c 1.31769,-3.73552 1.62158,0.53333 0,0 z m 9.67673,-6.24031 c 4.70383,-4.07019 -4.05604,4.78962 0,0 z m 267.28704,-93.71051 c 8.03305,-13.18505 43.44597,-64.37639 6.55296,-35.03107 1.45763,-20.31681 -2.65781,-16.41637 20.01979,-31.59982 12.58949,-6.45415 54.51736,-53.84921 27.19359,-16.0586 -11.26511,15.02709 15.21716,5.62565 -2.69431,26.00099 8.3041,2.74207 -64.65322,60.9851 -45.88695,53.20203 l -3.76526,2.65914 -1.41982,0.82733 0,0 z M 610.6245,580.27025 c -5.1314,-20.68108 -7.23301,-40.04022 -14.42241,-60.1897 -0.005,-9.68741 -8.79856,-44.28731 -7.99884,-31.68821 -9.02708,-16.7717 -30.92972,-100.3623 -18.4891,-56.68639 -10.04978,-30.38612 -4.05764,-64.37328 -20.74385,-93.08174 -4.66904,-16.28335 -21.19669,13.27812 -13.63928,-2.87314 -9.79939,-9.60384 -4.39491,-36.87265 -23.10598,-13.4027 -14.76902,14.34608 -16.64943,24.43038 0.7398,24.45399 -16.65551,8.75723 -38.78525,6.6285 -26.00641,2.77409 6.25198,-15.1918 -34.19908,-17.63236 -4.88587,-34.07652 22.41085,-22.77404 10.02511,-15.26574 12.12737,-22.15422 2.74843,-8.75553 -6.29078,0.079 -9.45555,-0.77546 -19.29369,11.00287 -4.91894,-16.84035 -9.56288,-7.33405 -13.30555,-9.15764 52.01822,-43.44506 43.50927,-39.77618 12.41523,-12.96099 -45.44468,-44.1617 -1.82047,-45.28977 37.99386,9.19345 31.93809,63.8475 31.77157,95.00714 -14.67056,32.72989 17.95864,59.9067 19.28249,92.13286 -0.68865,31.63348 13.23473,60.08308 20.40611,89.88225 5.75028,34.89346 25.22365,66.60432 22.29403,103.07775 z M 523.88851,246.11777 c -2.94183,-1.87716 1.07351,1.28913 0,0 z M 229.40385,562.97747 C 208.5473,547.26733 192.13936,532.4343 185.61491,507.6249 c -9.08149,-23.51425 -4.85861,-67.208 21.29539,-78.50172 21.27895,-3.3662 68.23878,5.7952 55.20184,35.31194 5.19223,18.50585 -5.17195,32.42707 -8.89335,20.81388 -3.6503,4.03849 -11.56472,0.54712 -3.93038,3.67481 -0.20962,14.9244 3.51502,18.43464 8.83079,32.46821 22.82444,25.84771 54.96199,-10.54103 79.2911,5.68572 -6.04854,13.21633 -30.66516,34.80398 -18.9048,29.80444 -20.23469,6.73291 -27.85153,-22.83865 -39.5352,-4.25922 -24.84234,11.59598 -6.30228,-41.86602 -32.4,4.72734 -5.93128,1.65339 -13.50237,-1.55076 -17.16645,5.62717 z m 26.31432,-87.57814 c 6.72216,-5.31567 -6.44803,0.46451 0,0 z m 264.0979,73.6671 c -1.56571,-1.60803 2.57596,1.31152 0,0 z m 56.47154,-11.75435 c 0.4402,-1.21302 1.82748,0.92497 0,0 z m -311.47696,-17.4158 c -2.57642,-8.16631 7.3765,2.10676 0,0 z m 6.13709,-6.88206 c -4.70703,-3.69008 10.63211,-1.65823 0,0 z m -12.53879,-0.25376 c 0.43154,-9.41669 12.56634,-0.10497 0,0 z m -2.02103,-9.34206 c -7.01985,-10.39931 9.39112,-3.34267 0,0 z m 10.94238,-2.65426 c -9.3032,-5.69147 10.32999,-2.86742 0,0 z m 5.25,-2.5235 c 6.38498,-8.07426 13.81696,-0.0853 0,0 z m 292.36505,-2.18039 c 2.18743,-3.18005 0.21901,-0.52741 0,0 z m -303.24341,-6.78 c -1.4131,-4.89501 6.14053,-1.82246 0,0 z m 11.48457,-4.85039 c -5.95175,-7.0152 6.07536,-1.9344 0,0 z m 7.64379,-3.723 c -2.06902,-7.92477 12.28057,-3.93924 0,0 z m 76.86,-61.91215 c -14.72557,-1.11757 -44.68816,-14.94806 -23.65627,-28.12446 17.47945,-19.99954 48.98462,-23.149 69.04178,-0.32929 -2.39881,20.12669 -26.63087,31.53846 -45.38551,28.45375 z m 10.68,-3.63568 c 3.63896,-0.73346 -23.52686,-26.11708 2.8373,-29.72787 1.40587,-25.33458 -52.89008,27.05567 -13.3973,29.88856 l 5.33611,0.0715 5.22389,-0.23222 0,0 z m -217.03657,0.26122 c 0.21582,-2.63896 1.55809,-0.74532 0,0 z m 0.68106,-1.94523 c 6.64625,-38.49178 14.4016,-84.52803 49.59881,-108.01681 26.49511,-2.09222 52.66722,-19.94743 50.94482,-49.373 3.55256,-14.9188 3.92163,-76.31297 7.06456,-65.55599 -2.6177,34.76494 10.14556,73.62934 -16.45504,102.73658 -23.10701,12.92851 -47.74303,15.3403 -59.53704,41.05163 -17.49627,23.63911 -17.76891,55.15253 -31.61611,79.15759 z M 530.572,396.28025 c -6.22253,-12.64435 5.14694,-50.79628 -10.70176,-42.46781 -5.77731,3.69081 8.03981,19.20316 16.34309,2.26822 4.73278,23.96301 -7.26259,12.20368 4.26259,26.72959 0.51493,5.99452 -2.11501,14.92398 -9.90392,13.47 z m -302.66399,-3.07803 c -27.46302,-13.71555 -1.43483,-52.82377 22.98229,-44.53939 5.91612,4.49392 -10.54243,39.1634 1.73457,27.61618 -3.45525,9.02788 -15.51776,15.8912 -24.71686,16.92321 z m -1.33852,-9.95554 c 1.2201,-14.39866 26.6204,-30.43643 -0.3079,-21.91419 -7.86506,3.4725 -8.31206,19.84454 0.3079,21.91419 z m 23.26778,-15.6819 c 11.46512,-14.53153 -15.49568,-4.65632 0,0 z m 203.01303,-40.9881 c -0.71555,-38.88078 -12.69176,-35.24171 -10.82085,-27.97143 -23.11752,15.80148 -10.69892,-47.41687 -4.65915,-29.00382 -56.31992,-9.14123 -39.88302,14.68669 -74.54043,-3.19118 30.21388,-10.64621 67.67634,3.60459 92.93242,-13.36128 10.22819,-10.34825 30.31694,-31.40339 38.97227,-37.07724 -28.1082,17.04065 -19.74327,51.71435 -40.28966,74.27312 17.81372,-30.59491 -0.69813,32.96395 1.09775,28.89203 l -2.50557,7.49216 -0.18678,-0.0524 0,0 z m 6.30951,-10.36643 c 0.66081,-1.57394 -0.25925,1.10265 0,0 z m 4.85049,-9.15707 c 7e-5,-0.99915 0.51127,0.0218 0,0 z m 1.57027,-3.74293 c -0.11103,-1.01959 0.64804,8.4e-4 0,0 z m 3.94973,-11.45292 c 0.28005,-0.41217 0.34563,0.22867 0,0 z m 0.84,-0.95292 c 0.19801,-0.56025 0.41647,0.20688 0,0 z m 1.32,-1.86708 c -0.0147,-0.64207 0.36228,0.0899 0,0 z m -67.61573,-5.47493 c -0.49505,-1.62535 1.80845,2.26781 0,0 z M 292.16946,260.54514 c -22.8876,-15.69427 -1.99405,-53.19456 -19.55259,-71.14652 24.65786,1.51304 29.13144,46.28414 46.68821,63.88134 14.41344,10.0455 -21.09934,0.24085 -27.13562,7.26518 z"
         id="path3028"
         inkscape:connector-curvature="0" />
      <path
         style="fill:#a27a30"
         d="M 370.4703,833.16032 C 227.53188,832.88978 91.98923,734.99233 45.818798,599.88446 -2.15623,469.08907 37.549058,312.01119 142.9722,220.57801 248.64673,123.45923 415.60818,103.63012 541.33251,172.59094 663.55486,235.81554 739.73568,375.7762 726.0735,512.75312 715.66438,658.02463 604.6125,788.54057 463.03831,822.50736 c -30.21141,7.6126 -61.41358,11.24693 -92.56801,10.65296 z m 20.34,-17.8579 C 536.74451,811.55437 670.35383,699.7049 700.96152,557.21332 733.10343,425.43328 674.50581,278.08885 560.24287,204.77177 443.6028,124.97177 276.4254,132.74057 167.75799,223.11784 59.61665,307.56678 15.54977,462.165 61.802774,591.11792 103.48132,716.22856 225.26365,809.12688 357.19381,815.02363 c 11.19183,0.73942 22.41149,0.44076 33.61649,0.27879 z M 218.17357,753.31056 c 1.31769,-3.73552 1.62158,0.53333 0,0 z m 9.67673,-6.24031 c 4.70383,-4.07019 -4.05604,4.78962 0,0 z m 267.28704,-93.71051 c 8.03305,-13.18505 43.44597,-64.37639 6.55296,-35.03107 1.45763,-20.31681 -2.65781,-16.41637 20.01979,-31.59982 12.58949,-6.45415 54.51736,-53.84921 27.19359,-16.0586 -11.26511,15.02709 15.21716,5.62565 -2.69431,26.00099 8.3041,2.74207 -64.65322,60.9851 -45.88695,53.20203 l -3.76526,2.65914 -1.41982,0.82733 0,0 z M 610.6245,580.27025 c -5.1314,-20.68108 -7.23301,-40.04022 -14.42241,-60.1897 -0.005,-9.68741 -8.79856,-44.28731 -7.99884,-31.68821 -9.02708,-16.7717 -30.92972,-100.3623 -18.4891,-56.68639 -10.04978,-30.38612 -4.05764,-64.37328 -20.74385,-93.08174 -4.66904,-16.28335 -21.19669,13.27812 -13.63928,-2.87314 -9.79939,-9.60384 -4.39491,-36.87265 -23.10598,-13.4027 -14.76902,14.34608 -16.64943,24.43038 0.7398,24.45399 -16.65551,8.75723 -38.78525,6.6285 -26.00641,2.77409 3.10034,-5.85179 -5.26008,-20.45527 -16.26185,-17.44058 -0.019,-9.19217 13.2715,-13.3838 15.16546,-23.25138 3.02707,-4.02196 15.31239,-8.37144 12.69206,-13.14425 -9.69123,2.32964 0.44021,-8.16584 -4.07087,-2.92184 0.93023,-5.12538 -12.4927,0.53506 -12.81856,0.36116 -21.81958,13.64932 -8.16753,-8.5976 -6.48317,-7.94336 -13.30555,-9.15764 52.01822,-43.44506 43.50927,-39.77618 12.41523,-12.96099 -45.44468,-44.1617 -1.82047,-45.28977 37.99386,9.19345 31.93809,63.8475 31.77157,95.00714 -14.67056,32.72989 17.95864,59.9067 19.28249,92.13286 -0.68865,31.63348 13.23473,60.08308 20.40611,89.88225 5.75028,34.89346 25.22365,66.60432 22.29403,103.07775 z M 490.21609,296.94402 c -0.001,-0.3869 -0.37278,0.36948 0,0 z m 33.67242,-50.82625 c -2.94183,-1.87716 1.07351,1.28913 0,0 z m -303.1746,307.79185 c -22.00085,-10.33684 -26.4161,-29.61879 -37.09539,-49.60552 -4.15332,-23.10148 -2.34263,-60.15476 19.37503,-73.50025 21.89045,-7.29461 71.96832,3.50505 59.01046,34.62099 1.13044,21.18767 -8.54227,1.89909 -6.23448,15.01137 -1.74033,-1.87362 4.01936,19.563 -3.99317,15.42204 -3.06078,14.30927 6.21056,32.58621 30.25394,36.03325 11.72898,-2.88663 62.85301,-18.46978 48.29874,-0.21452 -31.88208,20.10361 -69.93605,0.84828 -99.47864,19.97322 l -4.47549,1.84748 -5.661,0.41194 0,0 z m 299.10216,-4.84319 c -1.56571,-1.60803 2.57596,1.31152 0,0 z m 56.47154,-11.75435 c 0.4402,-1.21302 1.82748,0.92497 0,0 z M 260.4136,511.50998 c 0.27625,-2.69874 2.53143,0.77999 0,0 z m 304.53175,-15.44973 c 2.18743,-3.18005 0.21901,-0.52741 0,0 z m -311.09668,-4.98089 c -4.50623,-4.42231 3.74034,-0.39814 0,0 z m 104.91659,-72.38885 c -19.02899,-1.48995 -46.74766,-16.28357 -21.78893,-31.88313 18.36886,-16.26878 47.28535,-17.71476 66.19397,3.62287 -0.21023,13.90031 -16.53518,23.96242 -28.30672,27.44005 -5.31826,0.89756 -10.72435,0.95357 -16.09832,0.82021 z m 6.90504,-3.12425 c 17.1803,2.4392 -23.78301,-21.50352 0.42628,-25.83488 24.5516,-29.74507 -50.04146,9.68556 -13.83015,24.82673 l 6.34836,0.98363 7.05551,0.0245 0,0 z m -214.33657,-0.14601 c 0.21582,-2.63896 1.55809,-0.74532 0,0 z m 0.68106,-1.94523 c 6.64625,-38.49178 14.4016,-84.52803 49.59881,-108.01681 26.49511,-2.09222 52.66722,-19.94743 50.94482,-49.373 3.55256,-14.9188 3.92163,-76.31297 7.06456,-65.55599 -2.6177,34.76494 10.14556,73.62934 -16.45504,102.73658 -23.10701,12.92851 -47.74303,15.3403 -59.53704,41.05163 -17.49627,23.63911 -17.76891,55.15253 -31.61611,79.15759 z M 530.572,396.28025 c -6.22253,-12.64435 5.14694,-50.79628 -10.70176,-42.46781 -5.77731,3.69081 8.03981,19.20316 16.34309,2.26822 4.73278,23.96301 -7.26259,12.20368 4.26259,26.72959 0.51493,5.99452 -2.11501,14.92398 -9.90392,13.47 z m -303.2017,-3.51064 c -40.95668,-24.03488 37.54307,-69.98248 24.75852,-15.53416 -4.02592,7.91007 -15.84098,15.61716 -24.75852,15.53416 z m 3.3841,-4.33026 c 6.83565,-0.49109 -9.50769,-25.16718 10.50239,-25.38459 -13.54791,-22.65528 -37.0144,22.4629 -10.50239,25.38459 z m 19.58112,-20.993 c 10.72373,-14.31888 -17.62436,-4.19763 0,0 z m -0.88522,14.9439 c 0.65603,-0.6624 -0.37722,0.64463 0,0 z m 203.4,-55.81357 c -0.71555,-38.88078 -12.69176,-35.24171 -10.82085,-27.97143 -23.11752,15.80148 -10.69892,-47.41687 -4.65915,-29.00382 -56.31992,-9.14123 -39.88302,14.68669 -74.54043,-3.19118 30.21388,-10.64621 67.67634,3.60459 92.93242,-13.36128 10.22819,-10.34825 30.31694,-31.40339 38.97227,-37.07724 -28.1082,17.04065 -19.74327,51.71435 -40.28966,74.27312 17.81372,-30.59491 -0.69813,32.96395 1.09775,28.89203 l -2.50557,7.49216 -0.18678,-0.0524 0,0 z m 6.30951,-10.36643 c 0.66081,-1.57394 -0.25925,1.10265 0,0 z m 4.85049,-9.15707 c 7e-5,-0.99915 0.51127,0.0218 0,0 z m 1.57027,-3.74293 c -0.11103,-1.01959 0.64804,8.4e-4 0,0 z m 3.94973,-11.45292 c 0.28005,-0.41217 0.34563,0.22867 0,0 z m 0.84,-0.95292 c 0.19801,-0.56025 0.41647,0.20688 0,0 z m 1.32,-1.86708 c -0.0147,-0.64207 0.36228,0.0899 0,0 z m -67.61573,-5.47493 c -0.49505,-1.62535 1.80845,2.26781 0,0 z M 292.16946,260.54514 c -22.8876,-15.69427 -1.99405,-53.19456 -19.55259,-71.14652 24.65786,1.51304 29.13144,46.28414 46.68821,63.88134 14.41344,10.0455 -21.09934,0.24085 -27.13562,7.26518 z"
         id="path3026"
         inkscape:connector-curvature="0" />
      <path
         style="fill:#8d6d2f"
         d="M 365.6703,822.60054 C 227.5654,820.1034 97.616078,724.18009 54.514118,592.88566 7.745534,462.12937 52.041962,305.85554 160.6498,219.28218 269.39143,127.25767 437.08285,116.39075 556.80334,193.66255 674.63487,265.12966 738.71058,412.55308 710.67477,547.44642 685.23301,688.98161 560.83577,805.0693 417.76406,820.2868 c -17.27806,2.12275 -34.6987,2.7601 -52.09376,2.31374 z m 25.14,-7.29812 C 531.98881,811.5049 662.26437,707.20159 697.75721,570.70477 734.56803,442.73734 685.05136,295.93656 577.68611,216.92911 464.71434,128.31187 294.05215,127.12055 179.6703,213.72427 71.232626,290.98456 19.180802,436.73747 53.854406,565.24823 86.999222,702.13625 215.22657,808.57112 356.10661,814.95796 c 11.55228,0.81336 23.13567,0.51716 34.70369,0.34446 z M 220.71391,553.90962 c -22.00085,-10.33684 -26.4161,-29.61879 -37.09539,-49.60552 -4.15332,-23.10148 -2.34263,-60.15476 19.37503,-73.50025 21.89045,-7.29461 71.96832,3.50505 59.01046,34.62099 1.13044,21.18767 -8.54227,1.89909 -6.23448,15.01137 -1.74033,-1.87362 4.01936,19.563 -3.99317,15.42204 -3.06078,14.30927 6.21056,32.58621 30.25394,36.03325 11.72898,-2.88663 62.85301,-18.46978 48.29874,-0.21452 -31.88208,20.10361 -69.93605,0.84828 -99.47864,19.97322 l -4.47549,1.84748 -5.661,0.41194 0,0 z m 39.69969,-42.39964 c 0.27625,-2.69874 2.53143,0.77999 0,0 z m -6.56493,-20.43062 c -4.50623,-4.42231 3.74034,-0.39814 0,0 z m 104.91659,-72.38885 c -19.75289,-1.02867 -47.05951,-17.77824 -20.38493,-32.37141 15.82875,-26.10882 90.0572,-4.77248 51.46997,24.2939 -8.58052,7.90903 -20.03638,8.49335 -31.08504,8.07751 z m 6.90504,-3.12425 c 17.1803,2.4392 -23.78301,-21.50352 0.42628,-25.83488 24.5516,-29.74507 -50.04146,9.68556 -13.83015,24.82673 l 6.34836,0.98363 7.05551,0.0245 0,0 z m 165.09,-19.38688 c -11.2325,-25.71906 -31.02362,-33.69754 -10.98003,-42.89757 12.38107,1.98309 12.89166,-27.20259 16.17436,3.19324 13.34248,-3.49116 21.94803,11.62237 4.2059,20.4252 0.27146,6.96674 1.32483,20.18809 -9.40023,19.27913 z m -303.39,-3.40977 c -45.03308,-35.77816 53.27079,-61.47975 19.40662,-8.27678 -6.76424,2.25242 -11.53,9.97703 -19.40662,8.27678 z m 3.3841,-4.33026 c 6.83565,-0.49109 -9.50769,-25.16718 10.50239,-25.38459 -13.54791,-22.65528 -37.0144,22.4629 -10.50239,25.38459 z m 19.58112,-20.993 c 10.72373,-14.31888 -17.62436,-4.19763 0,0 z m 237.03036,-15.2109 c 9.14724,-17.8309 -36.42647,-19.49371 -3.93403,-38.46207 12.0372,-13.98058 4.08817,-22.10982 10.72652,-19.98009 3.63102,-11.14825 -26.09426,8.07608 -24.12102,3.43482 14.86568,-16.41153 -8.53736,-6.08964 6.00352,-21.76834 10.19872,-21.06177 31.2967,-46.67915 43.47518,-36.02757 25.41697,16.7411 19.91695,62.93646 -2.82572,79.23646 -31.10121,10.65995 13.27647,33.7226 -4.0414,28.13943 -16.3814,16.07624 -12.81617,-12.07705 -25.28305,5.42736 z m -34.56307,-26.7552 c -0.49352,-21.37166 -0.72087,-21.0736 -8.47251,-18.93 -4.50348,-21.97252 29.69147,-74.96664 27.42335,-59.76 5.22544,16.85047 -31.37558,58.5167 -7.38277,32.03964 -9.1677,19.31348 -1.64607,33.61427 -11.56807,46.65036 z"
         id="path3024"
         inkscape:connector-curvature="0" />
      <path
         style="fill:#796829"
         d="M 367.6503,822.41764 C 223.80496,821.01433 89.224154,717.28247 50.33705,578.98616 9.899354,448.14382 58.68407,296.1292 168.09784,213.63344 279.87819,124.10302 448.97857,118.5968 566.51331,200.26591 678.32235,273.59754 737.61477,416.64892 710.38721,547.5819 684.86755,690.14884 558.69004,806.38219 414.6242,820.40873 c -15.59309,1.80757 -31.28921,2.23154 -46.9739,2.00891 z m 22.5,-6.9974 C 532.59774,811.84403 664.14676,705.99974 698.6551,567.85355 734.61301,438.63703 682.54393,291.32478 573.29794,213.50879 458.71105,126.77453 287.76878,128.32472 174.82557,217.21078 64.663202,298.57344 15.930806,451.42888 58.372046,581.59259 98.368946,716.2569 231.1854,815.997 371.87908,815.60581 c 6.0905,-0.0286 12.18226,-0.0251 18.27122,-0.18557 z M 220.71391,553.90962 c -22.00085,-10.33684 -26.4161,-29.61879 -37.09539,-49.60552 -4.15332,-23.10148 -2.34263,-60.15476 19.37503,-73.50025 21.89045,-7.29461 71.96832,3.50505 59.01046,34.62099 1.13044,21.18767 -8.54227,1.89909 -6.23448,15.01137 -1.74033,-1.87362 4.01936,19.563 -3.99317,15.42204 -3.06078,14.30927 6.21056,32.58621 30.25394,36.03325 11.72898,-2.88663 62.85301,-18.46978 48.29874,-0.21452 -31.88208,20.10361 -69.93605,0.84828 -99.47864,19.97322 l -4.47549,1.84748 -5.661,0.41194 0,0 z m 39.69969,-42.39964 c 0.27625,-2.69874 2.53143,0.77999 0,0 z m -6.56493,-20.43062 c -4.50623,-4.42231 3.74034,-0.39814 0,0 z m 104.91659,-72.38885 c -19.42212,-1.52418 -46.84833,-17.2714 -20.58119,-32.35664 14.78148,-17.76013 64.58388,-16.36686 62.96837,11.87355 -9.02554,14.78943 -25.10091,22.83519 -42.38718,20.48309 z m 6.90504,-3.12425 c 17.28729,2.5058 -23.97496,-21.49795 0.42628,-25.83488 24.5516,-29.74507 -50.04146,9.68556 -13.83015,24.82673 l 6.34836,0.98363 7.05551,0.0245 0,0 z m -138.3,-22.79665 c -39.10056,-21.24457 30.02954,-69.60627 26.27454,-20.03936 -1.99192,10.64728 -16.1008,19.61188 -26.27454,20.03936 z m 3.3841,-4.33026 c 6.83565,-0.49109 -9.50769,-25.16718 10.50239,-25.38459 -13.54791,-22.65528 -37.0144,22.4629 -10.50239,25.38459 z m 19.58112,-20.993 c 10.72373,-14.31888 -17.62436,-4.19763 0,0 z m 235.24091,-26.9061 c -41.809,-13.1823 43.21417,-54.74769 12.76806,-44.83114 -12.09666,5.13406 2.88602,-12.72453 -13.1527,-3.44625 -17.40367,7.76975 -16.9822,6.64654 -8.90963,-8.15734 -12.51134,1.46749 56.79765,-5.77885 45.32815,-13.85249 28.41611,-17.72331 14.42592,16.53378 0.30528,27.47598 14.92779,-13.97424 -35.01091,38.5745 -25.51573,35.31212 -5.76229,-3.87963 -8.36504,9.0187 -10.82343,7.49912 z"
         id="path3022"
         inkscape:connector-curvature="0" />
      <path
         style="fill:#523c24"
         d="m 290.3103,535.73552 c -31.2724,-5.23726 -64.7282,-15.63001 -94.66651,-19.72527 -17.49642,-8.2685 67.01466,-7.40708 53.3473,-4.32 10.25546,-12.0387 -2.73879,20.01209 19.95921,16.29197 10.73656,15.93876 106.30165,-22.95737 61.62,-1.76636 -11.78337,7.92631 -26.34836,10.06543 -40.26,9.51966 z m -51,-27.1004 c -8.31825,-7.57658 -8.93124,-18.00471 -19.93182,-12.00472 -8.02312,7.78185 -15.86099,-0.79619 -22.72824,-17.94306 -18.81223,-13.94656 -8.14025,-54.37432 19.56,-50.2765 30.70594,-3.51451 62.65835,22.55502 27.05973,45.1816 -12.28311,12.21354 4.76881,17.33065 -0.0811,33.19528 l -0.86464,1.71511 -3.01399,0.13229 6e-5,0 z m 6.804,-8.72887 c 1.27871,-9.20505 11.70946,-2.58334 0,0 z m 0.55618,-12.84385 c -0.41599,-11.91262 15.35804,2.00619 0,0 z m 8.40672,-7.03806 c -15.06832,-6.35299 11.01014,-5.69029 0,0 z m 4.52969,-3.08514 c -12.2608,-12.01832 11.82083,-29.94619 0,0 z m 97.36341,-58.50569 c -18.48679,-2.20526 -44.12621,-17.26383 -19.02,-31.93048 18.30045,-16.00941 46.50632,-17.16722 65.01474,4.0417 -3.31339,19.9393 -27.08883,31.24037 -45.99474,27.88878 z m 10.85206,-2.91727 c 14.05801,-0.0597 -27.29835,-23.27018 0.44534,-27.33265 16.49641,-28.89464 -51.7992,16.1028 -14.47979,26.84384 4.61764,1.07644 9.35999,0.74131 14.03445,0.48881 z m 14.87175,-17.9547 c 0.62721,-7.72649 -9.74291,-0.67572 0,0 z m -4.66658,-8.20445 c 6.09717,-6.77325 -7.64804,-1.36511 0,0 z m -149.90872,3.40814 c -38.51439,-17.53907 24.18345,-70.28564 25.8995,-22.71384 -0.64878,12.85471 -14.88426,20.74699 -25.8995,22.71384 z m 3.59338,-4.30643 c 4.18598,-2.31894 -7.7466,-25.05838 9.12146,-26.45446 -14.25022,-21.34346 -37.11968,26.26665 -9.12146,26.45446 z m 18.51811,-20.93208 c 10.98599,-14.95996 -16.88634,-4.21567 0,0 z m 235.40754,-27.10647 c -32.19891,-9.76569 23.94539,-60.11992 14.35015,-45.11927 -16.0311,8.46898 4.02468,-14.54036 -14.94613,-2.05922 -12.05882,2.02316 -21.42288,10.03589 -7.30694,-10.08398 14.78657,-8.31806 63.44022,-21.56256 39.15949,10.47472 -8.54944,16.50268 -18.64178,35.39931 -31.25657,46.78775 z"
         id="path3020"
         inkscape:connector-curvature="0" />
      <path
         style="fill:#252211"
         d="m 290.3103,535.49131 c -33.40038,-6.75358 -68.46599,-14.68919 -100.86,-21.99483 32.90027,-13.08768 64.33149,13.007 95.82,18.9089 12.20153,-1.95122 68.87673,-13.5975 30.45007,0.38878 -8.25128,2.40351 -16.86062,3.03232 -25.41007,2.69715 z m -52.32158,-32.03604 c -8.97626,-2.48953 -32.25417,-2.00859 -23.27866,-7.00506 -10.77999,8.92994 -15.85925,-25.30116 -22.22496,-22.53829 -21.29654,-31.64021 19.27794,-57.94805 46.92996,-41.41908 49.09293,10.1994 -5.21424,44.57757 1.36353,48.63486 -5.99675,5.71926 12.31212,23.75955 -2.78987,22.32757 z m 104.53776,-89.33315 c -25.63873,-25.9573 35.10594,-60.15414 54.98162,-27.65631 12.56568,14.40472 -47.63081,44.47863 -36.88692,5.16836 39.554,-24.00828 -33.98533,-9.07268 -15.36183,18.10084 3.90592,3.46815 8.10397,6.62275 -2.73287,4.38711 z m 40.21061,-16.3086 c 3.96501,-7.76393 -14.00396,-1.40228 0,0 z m -4.66764,-8.22819 c 5.70589,-6.33003 -7.29236,-1.56338 0,0 z M 240.7503,385.87367 c -28.18858,-8.80811 19.76089,-38.41691 -17.12783,-24.65105 -15.31014,8.53845 23.89887,-29.44194 28.95554,-1.04333 3.64064,8.6699 -0.0697,25.81128 -11.82771,25.69438 z m 9.60082,-18.27201 c 10.75807,-15.80503 -17.22606,-3.28435 0,0 z"
         id="path3018"
         inkscape:connector-curvature="0" />
    </g>
  </g>
</svg>
